<?xml version="1.0" encoding="UTF-8"?>
<svg version="1.1" xmlns="http://www.w3.org/2000/svg" width="1024" height="1024">
<path d="M0 0 C337.92 0 675.84 0 1024 0 C1024 337.92 1024 675.84 1024 1024 C686.08 1024 348.16 1024 0 1024 C0 686.08 0 348.16 0 0 Z " fill="#FEFCFA" transform="translate(0,0)"/>
<path d="M0 0 C1.20502509 -0.00170885 2.41005018 -0.0034177 3.65159118 -0.00517833 C6.96974837 -0.00788813 10.28766592 -0.00169465 13.60579395 0.00837779 C17.19392684 0.0170585 20.78205304 0.01408888 24.37019348 0.01257324 C30.5780625 0.0115273 36.78588931 0.01777341 42.99374771 0.02904892 C51.96913344 0.04534051 60.94449887 0.05051566 69.91989778 0.0530249 C84.48379066 0.05739627 99.04766106 0.07069022 113.61154175 0.08963013 C127.75444425 0.10800338 141.89734065 0.12215281 156.04025269 0.13064575 C156.91281515 0.1311712 157.78537762 0.13169665 158.68438138 0.13223802 C163.06200788 0.13484819 167.43963441 0.13737558 171.81726098 0.13986182 C208.10287043 0.16057695 244.38845434 0.19578726 280.67404175 0.24050903 C280.52750459 1.8146099 280.37780864 3.38841687 280.2268219 4.96209717 C280.14380672 5.83854197 280.06079153 6.71498676 279.97526073 7.61799049 C279.52430572 11.54416362 278.69720246 15.35219928 277.818573 19.20144653 C277.5453849 20.43268501 277.5453849 20.43268501 277.26667786 21.688797 C276.6789667 24.33233738 276.0831978 26.97397443 275.48654175 29.61550903 C274.66285765 33.28822456 273.84200822 36.9615699 273.021698 40.63504028 C272.7169606 41.99570869 272.7169606 41.99570869 272.40606689 43.38386536 C271.18279267 48.87032489 270.01934138 54.36465049 268.9201355 59.87722778 C268.66320923 61.14711548 268.40628296 62.41700317 268.14157104 63.72537231 C267.67835217 66.03500464 267.22711043 68.34708652 266.79049683 70.66189575 C265.2064451 78.46529308 262.97095529 84.56176678 256.67404175 89.67800903 C251.10989349 92.57600292 245.71331727 92.38435278 239.58041382 92.37181091 C238.20343992 92.37498448 238.20343992 92.37498448 236.79864836 92.37822217 C233.72129355 92.38421555 230.64397982 92.38322247 227.56661987 92.38235474 C225.36040172 92.38538676 223.15418419 92.38890833 220.94796753 92.3928833 C216.19479808 92.40077078 211.44163613 92.40591672 206.6884613 92.40917397 C199.16536162 92.41508841 191.64230915 92.431634 184.11923218 92.45051575 C181.54230502 92.45685321 178.96537784 92.46317883 176.38845062 92.46949291 C175.09785453 92.47265872 173.80725843 92.47582453 172.47755337 92.47908628 C165.8028176 92.49511191 159.12807956 92.50978859 152.45333862 92.52346802 C151.78369723 92.52484389 151.11405583 92.52621976 150.42412227 92.52763733 C139.58885981 92.54953562 128.75360902 92.56031616 117.91832834 92.56783877 C106.77726624 92.57592973 95.63629555 92.59954758 84.49528837 92.63579243 C78.24680671 92.65552054 71.99849953 92.66796842 65.74998474 92.66295815 C59.86642457 92.65829807 53.98319459 92.67219172 48.09970093 92.69997025 C45.94756657 92.70685946 43.7953979 92.70703321 41.64326477 92.69976997 C23.18419379 92.35898636 23.18419379 92.35898636 6.54904175 99.49050903 C2.97148543 104.73759163 1.15297511 108.86691873 2.11154175 115.30300903 C4.18826122 123.30448702 8.91194845 126.95079282 15.67404175 131.36550903 C22.33987867 135.28168822 29.21189029 138.17256192 36.67404175 140.24050903 C37.97815018 140.61126667 37.97815018 140.61126667 39.30860424 140.98951435 C48.40569708 143.34491285 57.07386738 143.68339539 66.38815308 143.67288208 C68.0255252 143.68191967 69.66289061 143.69225171 71.30024719 143.70376587 C75.70431395 143.7311278 80.10825162 143.7405918 84.51239228 143.74661994 C89.13018458 143.7560583 93.74788249 143.78226573 98.36561584 143.80662537 C107.09165834 143.85014472 115.81768237 143.87878085 124.54380006 143.90194875 C134.48592605 143.92907889 144.42795639 143.97298531 154.37001383 144.01823747 C174.80463821 144.11087494 195.23929122 144.18265093 215.67404175 144.24050903 C215.52847296 145.97593868 215.37936551 147.71107169 215.22880554 149.44607544 C215.14615857 150.4123587 215.0635116 151.37864197 214.97836018 152.37420654 C214.53702518 156.5310353 213.68246669 160.54584756 212.7482605 164.61550903 C212.55939774 165.46492065 212.37053497 166.31433228 212.1759491 167.18948364 C211.57759627 169.87465134 210.96996722 172.55760775 210.36154175 175.24050903 C209.76836897 177.88412859 209.17717753 180.52818488 208.58636475 183.17233276 C208.19522697 184.92194921 207.8030808 186.67134053 207.40991211 188.42050171 C205.87526481 195.26761135 204.41745506 202.12923352 203.01161194 209.00393677 C200.86363285 219.39522989 198.86084046 227.12416411 189.67404175 233.24050903 C181.07556749 238.20100167 172.0971647 237.76002094 162.50997925 237.63113403 C160.86518039 237.62365967 159.22037253 237.6179724 157.57556152 237.61398315 C153.27805338 237.59882069 148.981099 237.55962198 144.68380737 237.51516724 C140.28609708 237.47401001 135.88829599 237.45592878 131.490448 237.43582153 C122.8847271 237.39311681 114.27945361 237.32498192 105.67404175 237.24050903 C105.62125061 237.8694809 105.56845947 238.49845276 105.5140686 239.14648438 C105.01643875 244.62602223 104.25192194 249.89345408 103.00216675 255.24832153 C102.75817139 256.3286113 102.75817139 256.3286113 102.50924683 257.4307251 C101.98603084 259.74353239 101.4550002 262.05446834 100.92404175 264.36550903 C100.19198831 267.59142126 99.4641618 270.81828183 98.73654175 274.04519653 C98.5571405 274.83845337 98.37773926 275.63171021 98.19290161 276.44900513 C96.69014224 283.11349139 95.28674009 289.79599179 93.92404175 296.49050903 C92.60546795 302.94858565 91.2002502 309.3590879 89.54904175 315.74050903 C88.02384975 321.64526841 86.82112495 327.54215849 85.74337769 333.53909302 C84.87384027 338.3256504 83.76755376 342.99935917 82.5451355 347.70535278 C81.38702632 352.40530257 80.37766676 357.13313338 79.36154175 361.86550903 C77.45532844 370.68503972 75.53172405 379.50032131 73.54904175 388.30300903 C73.18685547 389.9526062 73.18685547 389.9526062 72.81735229 391.63552856 C71.09089053 399.23243283 69.3782001 405.80548461 63.18696785 410.94747543 C57.44990986 413.89949568 50.41202316 413.04839884 44.09371948 412.98513794 C42.39800118 412.98999757 40.70228861 412.99743992 39.0065918 413.00726318 C34.41346716 413.02603619 29.82119825 413.00727061 25.22814059 412.98059893 C20.41698033 412.9579261 15.60586084 412.96618822 10.79466248 412.97009277 C2.71696023 412.97185719 -5.36040584 412.94972776 -13.4380188 412.91287231 C-22.7727398 412.87052459 -32.10696871 412.86352107 -41.44176632 412.87599623 C-50.42850263 412.88739064 -59.41506591 412.87608487 -68.40177727 412.85364914 C-72.22343081 412.84436795 -76.04497835 412.84260472 -79.86664009 412.84682083 C-84.36727007 412.85059187 -88.86740012 412.83433968 -93.36791611 412.80270004 C-95.01825199 412.79422519 -96.66863866 412.79250603 -98.31898689 412.79808044 C-100.57446594 412.80454235 -102.82845968 412.78632117 -105.08378601 412.76190186 C-106.97549451 412.75574325 -106.97549451 412.75574325 -108.90541935 412.74946022 C-114.54035 411.91102373 -118.70159269 408.53605341 -122.32595825 404.24050903 C-124.35385447 399.50875119 -123.85748579 393.90153258 -122.32595825 389.11550903 C-118.90408836 384.19657107 -114.29105754 380.39110904 -108.32595825 379.24050903 C-106.29093425 379.14086181 -104.25303246 379.09497862 -102.21560669 379.08279419 C-100.36283112 379.06740097 -100.36283112 379.06740097 -98.47262573 379.05169678 C-97.81513084 379.04825886 -97.15763596 379.04482094 -96.48021698 379.04127884 C-94.4109003 379.02943165 -92.34178691 379.00996289 -90.27255249 378.98815918 C-84.3905218 378.92674909 -78.50851263 378.87261432 -72.62625122 378.83914185 C-69.02286787 378.81808998 -65.41985747 378.78270332 -61.81668854 378.73838425 C-60.45013087 378.72430639 -59.08350725 378.71552053 -57.7168808 378.71232986 C-45.33543381 378.89108252 -45.33543381 378.89108252 -34.95095825 372.92800903 C-31.13001547 366.60875751 -30.77049636 361.36407364 -32.32595825 354.24050903 C-33.71426865 350.5566755 -35.49971631 347.88810407 -38.63845825 345.42800903 C-45.03613409 342.60112901 -50.55962395 341.95061906 -57.47073364 341.98513794 C-58.35944656 341.98151749 -59.24815948 341.97789703 -60.1638031 341.97416687 C-62.08275899 341.96730266 -64.00173429 341.96476182 -65.92070198 341.96611404 C-68.96009048 341.96708316 -71.99912912 341.95409274 -75.03846741 341.93713379 C-83.67601868 341.89096843 -92.31353187 341.86624588 -100.95120239 341.85964966 C-106.24380614 341.85463433 -111.53604102 341.83038918 -116.82851982 341.79432297 C-118.84149397 341.78453127 -120.85451887 341.78218957 -122.86750984 341.78749466 C-125.68226722 341.79456782 -128.49592402 341.77727973 -131.31057739 341.75466919 C-132.13827637 341.76284164 -132.96597534 341.7710141 -133.8187561 341.7794342 C-139.1102172 341.70390647 -142.11705277 340.7332921 -146.32595825 337.24050903 C-150.00638296 332.0052525 -151.12024687 326.49553186 -150.32595825 320.24050903 C-148.63294848 314.64299547 -145.58105835 310.87419876 -140.86749268 307.48946381 C-135.71188319 304.95590651 -130.14054843 305.43205304 -124.509552 305.4992981 C-123.12234358 305.49439489 -121.73514241 305.48682993 -120.34796143 305.4768219 C-117.37396359 305.46108937 -114.40080252 305.46411515 -111.42681885 305.48206329 C-106.71907536 305.51047436 -102.0119897 305.49730363 -97.30422974 305.47897339 C-89.85531694 305.45497409 -82.40673508 305.45962275 -74.95781231 305.47609591 C-61.62385471 305.50465117 -48.28992133 305.48436566 -34.95598316 305.45369697 C-30.28159773 305.44407783 -25.60743402 305.44691457 -20.93305969 305.46037245 C-18.01985509 305.46721097 -15.10668729 305.46614318 -12.19347763 305.46336555 C-10.21028985 305.46411614 -8.22711381 305.47495929 -6.24395752 305.48616028 C1.55244035 305.46988833 8.25262666 305.43537909 14.98654175 301.11550903 C19.27218275 296.53086982 20.77839049 291.97366168 21.11154175 285.74050903 C20.9256016 280.36683873 18.89706525 275.76462683 15.34960747 271.73668861 C7.64369574 264.85577213 -6.12637149 266.8374915 -15.69363403 266.88748169 C-17.65254824 266.88664992 -19.61146227 266.88443072 -21.57037354 266.88093567 C-25.77293999 266.87600295 -29.97536646 266.88004948 -34.1779213 266.89094925 C-40.82635464 266.90735951 -47.47461389 266.89882201 -54.12304688 266.8861084 C-71.82827298 266.85603897 -89.53346681 266.85746504 -107.23870552 266.87636125 C-118.88366485 266.88869631 -130.52842612 266.88683335 -142.17336261 266.85797346 C-148.77968971 266.84274993 -155.38547848 266.85020578 -161.99177194 266.87468362 C-166.10252035 266.88476189 -170.21302231 266.87405542 -174.32374191 266.85756874 C-176.22643712 266.85412067 -178.12917027 266.85919892 -180.03181458 266.87353706 C-182.63465819 266.8919348 -185.23564695 266.87944661 -187.83843994 266.85955811 C-188.58650567 266.87227772 -189.3345714 266.88499734 -190.10530579 266.8981024 C-195.91344328 266.80282497 -199.76952232 264.78043583 -204.32595825 261.24050903 C-207.91289714 257.42938647 -207.8867203 253.19125454 -207.743927 248.16629028 C-206.89226577 242.20466169 -204.4816048 236.97554162 -199.76345825 233.17800903 C-195.41714177 231.50634885 -191.76289961 231.1131975 -187.09030151 231.10247803 C-185.80899857 231.09702469 -184.52769562 231.09157135 -183.20756531 231.08595276 C-181.7896729 231.08483304 -180.37178044 231.08378251 -178.95388794 231.08279419 C-177.45890657 231.07812429 -175.96392661 231.07298044 -174.46894836 231.06739807 C-171.25016158 231.05612681 -168.031384 231.0476879 -164.81258392 231.04127884 C-159.71888292 231.03058621 -154.62524803 231.0103375 -149.53158569 230.98815918 C-135.0472212 230.92627895 -120.56286062 230.87224769 -106.07839966 230.83914185 C-98.07821132 230.82077639 -90.07813383 230.79181644 -82.07802701 230.75113714 C-77.84682781 230.73009975 -73.6157681 230.7146145 -69.38451385 230.71232986 C-65.40190527 230.71017692 -61.41958708 230.69424201 -57.43706703 230.66794014 C-55.97946336 230.66077029 -54.5218244 230.65863491 -53.06420708 230.66204262 C-40.92081913 230.85635994 -40.92081913 230.85635994 -30.30252075 225.59207153 C-29.85650513 225.02230591 -29.4104895 224.45254028 -28.95095825 223.86550903 C-28.48947388 223.30089966 -28.0279895 222.73629028 -27.55252075 222.15457153 C-23.71155525 216.16070817 -23.49051557 210.173822 -24.32595825 203.24050903 C-25.95284155 198.12245986 -28.09730242 194.35746888 -32.07595825 190.74050903 C-39.71341604 187.21552851 -47.37006239 186.95772304 -55.66970825 187.01687622 C-56.7684729 187.01646835 -57.86723755 187.01606049 -58.9992981 187.01564026 C-61.37112741 187.0154436 -63.7429601 187.01944912 -66.11477661 187.02724457 C-69.8734323 187.03751374 -73.63175863 187.03205767 -77.39041138 187.02182007 C-88.07213523 186.99391637 -98.75361574 186.98091548 -109.43533325 187.01052856 C-115.98164325 187.02849573 -122.52749909 187.01493009 -129.07376099 186.98407745 C-131.56155143 186.97798201 -134.04939431 186.98281924 -136.53713989 186.99895477 C-140.01948999 187.02060493 -143.49991059 187.00522701 -146.98220825 186.98171997 C-148.00169556 186.99708298 -149.02118286 187.01244598 -150.07156372 187.02827454 C-157.19704582 186.92590337 -162.02368501 185.09609609 -167.32595825 180.24050903 C-170.39790356 175.96649189 -170.86774571 171.38748985 -170.32595825 166.24050903 C-168.95877062 160.69757002 -166.92088828 156.8143435 -162.32595825 153.24050903 C-154.89889304 149.54426164 -147.69641074 149.85274523 -139.54470825 149.94754028 C-138.12125091 149.95314494 -136.69778774 149.95741092 -135.27432251 149.96040344 C-131.55227298 149.97178394 -127.8305822 150.00119112 -124.1086731 150.03451538 C-120.30094249 150.06536411 -116.49315316 150.0789402 -112.68533325 150.09402466 C-105.23204581 150.12606858 -97.77905256 150.1771809 -90.32595825 150.24050903 C-90.80879272 149.3009436 -91.2916272 148.36137817 -91.78909302 147.39334106 C-92.42792697 146.13679163 -93.0665038 144.88011146 -93.7048645 143.62332153 C-94.02249756 143.00690796 -94.34013062 142.39049438 -94.66738892 141.75540161 C-104.85501899 121.61875869 -102.56085752 93.54571176 -95.84939575 72.48269653 C-86.01980925 43.36344866 -66.38692328 21.82023166 -39.0329895 7.96316528 C-33.66981029 5.38016867 -28.10722581 3.6258187 -22.32595825 2.24050903 C-21.64096256 2.07349554 -20.95596688 1.90648205 -20.25021374 1.73440754 C-13.44654856 0.21150605 -6.95420157 -0.03646797 0 0 Z " fill="#FE3A54" transform="translate(475.3259582519531,323.7594909667969)"/>
<path d="M0 0 C1.40017626 0.00169485 2.80035783 0.00073775 4.20053101 -0.00265503 C7.98140202 -0.00436895 11.76111922 0.03078052 15.54172325 0.07278872 C19.5001266 0.11042508 23.45855959 0.11383118 27.41711426 0.12094116 C34.90403705 0.13955235 42.390431 0.18873817 49.87712145 0.2490381 C58.40427658 0.31621995 66.93145764 0.34912146 75.45881176 0.37921071 C92.99172672 0.44184113 110.52412766 0.54730276 128.05664062 0.68115234 C128.05664062 1.01115234 128.05664062 1.34115234 128.05664062 1.68115234 C127.36826111 1.68538428 126.67988159 1.68961622 125.97064209 1.6939764 C109.2022882 1.79738907 92.43397723 1.90604244 75.66569519 2.0204916 C67.55660403 2.07571317 59.44750847 2.12917663 51.33837891 2.1784668 C44.26849214 2.22144458 37.19863631 2.26775616 30.12879753 2.31803089 C26.38718535 2.34452273 22.64557887 2.36937233 18.90393066 2.39022636 C14.72171485 2.41359848 10.53958502 2.44441516 6.35742188 2.47583008 C5.12383438 2.48158554 3.89024689 2.487341 2.61927795 2.49327087 C-6.21500608 2.51791511 -6.21500608 2.51791511 -14.94335938 3.68115234 C-15.93335938 5.16615234 -15.93335938 5.16615234 -16.94335938 6.68115234 C-17.93335938 6.68115234 -18.92335938 6.68115234 -19.94335938 6.68115234 C-22.38543857 13.5189741 -22.56358696 20.47547041 -22.94335938 27.68115234 C-21.62335938 28.01115234 -20.30335938 28.34115234 -18.94335938 28.68115234 C-18.94335938 30.00115234 -18.94335938 31.32115234 -18.94335938 32.68115234 C-14.68706945 33.87045447 -10.52670517 33.85626429 -6.13574219 33.88647461 C-5.24758316 33.89637421 -4.35942413 33.9062738 -3.4443512 33.91647339 C-0.51175594 33.94803423 2.4208555 33.97282445 5.35351562 33.99755859 C7.38804544 34.01813279 9.42257102 34.03912939 11.45709229 34.06053162 C16.80984062 34.11570413 22.16262723 34.1651347 27.51544189 34.21337891 C32.97842817 34.2636291 38.44135892 34.31929681 43.90429688 34.37451172 C54.62169735 34.48203435 65.33914605 34.58349244 76.05664062 34.68115234 C76.05664062 35.01115234 76.05664062 35.34115234 76.05664062 35.68115234 C64.16502178 35.77386755 52.27348905 35.84492529 40.38158226 35.88840103 C34.85956421 35.90926814 29.33779361 35.9375702 23.81591797 35.98291016 C18.48613683 36.02639854 13.15659359 36.05029604 7.82664871 36.06066132 C5.79407634 36.06804726 3.76151686 36.08247033 1.72904587 36.10407257 C-1.11988626 36.13314604 -3.96783772 36.13710666 -6.81689453 36.13525391 C-8.07493896 36.15682556 -8.07493896 36.15682556 -9.35839844 36.17883301 C-14.69122994 36.14135182 -17.70558209 35.21389031 -21.94335938 31.68115234 C-25.62378408 26.44589581 -26.73764799 20.93617517 -25.94335938 14.68115234 C-24.25230411 9.09010087 -21.20213244 5.30780822 -16.49272156 1.92646408 C-11.29546266 -0.61229151 -5.66761858 -0.0941154 0 0 Z " fill="#FE2A0A" transform="translate(350.943359375,629.31884765625)"/>
<path d="M0 0 C51.15 0 102.3 0 155 0 C154.34 0.33 153.68 0.66 153 1 C152.67 1.66 152.34 2.32 152 3 C102.17 3 52.34 3 1 3 C0.67 2.01 0.34 1.02 0 0 Z " fill="#FE4221" transform="translate(282,555)"/>
<path d="M0 0 C0.57621094 0.21785156 1.15242188 0.43570313 1.74609375 0.66015625 C-1.79594669 4.58170103 -1.79594669 4.58170103 -4.21484375 4.99609375 C-6.45034077 5.50794614 -6.45034077 5.50794614 -7.80859375 7.734375 C-10.62889584 13.08641797 -10.62889584 13.08641797 -10.81640625 18.97265625 C-7.92927839 23.93851617 -5.83574366 26.9149191 -0.25390625 28.66015625 C3.09833527 28.96977243 3.09833527 28.96977243 6.80122375 28.93862915 C7.49969978 28.94442155 8.19817581 28.95021395 8.91781777 28.95618188 C11.25165551 28.97314882 13.58529509 28.97605549 15.91918945 28.97900391 C17.59478742 28.98830437 19.27038077 28.99847322 20.94596863 29.00944519 C25.49097232 29.03674589 30.03594502 29.05189483 34.58100915 29.06487322 C39.33229646 29.08050342 44.08352046 29.10729401 48.83476257 29.13290405 C57.83022795 29.17969377 66.82570523 29.21643697 75.82123011 29.24957693 C86.06302829 29.28779693 96.30476289 29.33720742 106.54650748 29.38756108 C127.61298929 29.49088382 148.67951135 29.58014314 169.74609375 29.66015625 C169.74609375 29.99015625 169.74609375 30.32015625 169.74609375 30.66015625 C147.4238876 30.88418392 125.10158 31.08512136 102.77892113 31.25855637 C92.41416886 31.33962353 82.04958415 31.42825146 71.68505859 31.53466797 C62.65155718 31.62739918 53.61806287 31.70595531 44.58429301 31.76747727 C39.80074646 31.80054969 35.01749731 31.8407279 30.23417282 31.89788055 C25.73138418 31.95145734 21.22884674 31.9860703 16.72578812 32.00618553 C15.07376335 32.01689985 13.4217666 32.0345238 11.76989746 32.05960274 C9.51206655 32.09284292 7.25545011 32.10108532 4.99740601 32.10321045 C3.73454962 32.11427197 2.47169323 32.12533348 1.17056847 32.13673019 C-4.47793225 31.35064518 -8.62907403 27.9562537 -12.25390625 23.66015625 C-14.28180247 18.92839841 -13.78543378 13.3211798 -12.25390625 8.53515625 C-9.54729323 4.64440003 -5.17198591 -0.7798315 0 0 Z " fill="#FE693C" transform="translate(365.25390625,704.33984375)"/>
<path d="M0 0 C3.87857442 1.73867129 6.28404292 3.32375128 7.984375 7.3046875 C8.23703125 8.15289063 8.4896875 9.00109375 8.75 9.875 C9.14445312 11.13957031 9.14445312 11.13957031 9.546875 12.4296875 C10.63253697 18.58801141 7.66767901 24.50876104 4.296875 29.54418945 C-1.81072247 36.07441086 -12.04105136 37.03655026 -20.5546875 37.39306641 C-28.038768 37.55077618 -35.51628008 37.43770112 -43 37.3125 C-45.62497863 37.28737205 -48.24998057 37.26456688 -50.875 37.24414062 C-57.25051604 37.18953637 -63.62514663 37.10627005 -70 37 C-70.495 35.515 -70.495 35.515 -71 34 C-70.22849609 33.99413376 -69.45699219 33.98826752 -68.66210938 33.98222351 C-61.36518002 33.92414254 -54.06858614 33.85197882 -46.7719574 33.76428509 C-43.02133361 33.71969759 -39.27081554 33.68041661 -35.52001953 33.65356445 C-31.89528636 33.62741449 -28.27096256 33.58693152 -24.64648438 33.53681374 C-23.26876954 33.52022353 -21.89098403 33.50866064 -20.51318359 33.50238609 C-8.06713624 33.666095 -8.06713624 33.666095 2.375 27.6875 C6.16681637 21.41641907 6.69128953 16.07170436 5 9 C3.5755925 5.82788199 1.90311636 2.90734381 0 0 Z " fill="#FE4C18" transform="translate(438,669)"/>
<path d="M0 0 C0.66 0 1.32 0 2 0 C0.59016499 3.40710129 -0.81275832 5.12655805 -4 7 C-7.16276169 7.36914349 -7.16276169 7.36914349 -10.97283936 7.36076355 C-11.67454451 7.36332682 -12.37624966 7.3658901 -13.09921861 7.36853105 C-15.45016867 7.37347194 -17.80047631 7.3569716 -20.15136719 7.34057617 C-21.83666468 7.33972996 -23.52196328 7.34020492 -25.20726013 7.34190369 C-29.78342031 7.34276531 -34.35934513 7.32511256 -38.93545055 7.30418181 C-43.71739195 7.28544282 -48.49933859 7.28366677 -53.28131104 7.28010559 C-62.33709276 7.27077696 -71.39276599 7.24615209 -80.44849992 7.21605712 C-90.75793384 7.18253858 -101.06737291 7.16603351 -111.37684774 7.15097082 C-132.58462575 7.11960327 -153.79230604 7.06682685 -175 7 C-175 6.67 -175 6.34 -175 6 C-174.12847447 5.99945523 -173.25694895 5.99891047 -172.35901356 5.99834919 C-151.16033906 5.98338689 -129.96187501 5.94096236 -108.76331806 5.86790943 C-98.51186553 5.83324502 -88.26054767 5.807902 -78.0090332 5.80444336 C-69.07459296 5.80140548 -60.14039247 5.78093883 -51.20604485 5.73947543 C-46.47458483 5.71812766 -41.7434658 5.70555392 -37.01195717 5.71384621 C-32.55895993 5.72137514 -28.10665425 5.70561112 -23.6537838 5.67193985 C-22.01915907 5.66369254 -20.38446575 5.66397319 -18.74984741 5.67340279 C-16.51745813 5.6850063 -14.28734242 5.66593979 -12.05513 5.63923645 C-10.18158576 5.63508838 -10.18158576 5.63508838 -8.27019215 5.63085651 C-4.14325618 4.83472457 -2.73909635 3.08522893 0 0 Z " fill="#FC3C05" transform="translate(540,729)"/>
<path d="M0 0 C54.12 0 108.24 0 164 0 C164.33 1.65 164.66 3.3 165 5 C163.02 4.01 163.02 4.01 161 3 C161 2.34 161 1.68 161 1 C160.03674805 1.07064667 159.07349609 1.14129333 158.08105469 1.21408081 C145.79901356 2.05666019 133.55689124 2.14650409 121.25 2.1328125 C119.06323231 2.13348939 116.8764647 2.13446257 114.68969727 2.13571167 C110.1142505 2.13717806 105.53882337 2.13507339 100.96337891 2.13037109 C95.2325632 2.12475491 89.5017948 2.12799508 83.77098083 2.13382339 C55.83248746 2.15772576 27.92578845 1.85817387 0 1 C0 0.67 0 0.34 0 0 Z " fill="#FE316D" transform="translate(526,469)"/>
<path d="M0 0 C1.32 0 2.64 0 4 0 C5.10480265 3.35451178 4.87585589 5.65443038 4.13549805 9.0847168 C3.81472542 10.60230843 3.81472542 10.60230843 3.48747253 12.15055847 C3.24797379 13.23911636 3.00847504 14.32767426 2.76171875 15.44921875 C2.52089066 16.57640823 2.28006256 17.70359772 2.03193665 18.86494446 C1.2587212 22.47429687 0.47324583 26.08085693 -0.3125 29.6875 C-0.8308796 32.09813508 -1.34846693 34.50894068 -1.86523438 36.91992188 C-3.87711829 46.28733326 -5.9133804 55.64894325 -8 65 C-10.03417969 61.22900391 -10.03417969 61.22900391 -9.7265625 59.16796875 C-9.36691406 58.09482422 -9.36691406 58.09482422 -9 57 C-6.95542677 48.87231534 -5.75559369 42.29604205 -7 34 C-6.34 33.34 -5.68 32.68 -5 32 C-4.45181428 30.18610799 -3.98389416 28.3474682 -3.5625 26.5 C-2.63889946 22.53088587 -1.58740179 18.72232022 -0.25 14.875 C1.35788843 9.74308666 0.92504314 5.23819608 0 0 Z " fill="#FD106A" transform="translate(751,325)"/>
<path d="M0 0 C0.33 0 0.66 0 1 0 C1.16443301 6.19759494 0.69930285 11.66119413 -0.6796875 17.69140625 C-0.85251251 18.480952 -1.02533752 19.27049774 -1.20339966 20.08396912 C-1.75183386 22.57884667 -2.31328456 25.07058321 -2.875 27.5625 C-3.24432676 29.2361436 -3.612823 30.90997071 -3.98046875 32.58398438 C-5.56181737 39.74816074 -7.19705743 46.88794779 -9 54 C-9.33 54 -9.66 54 -10 54 C-9.85796663 51.62471849 -9.71148388 49.24984749 -9.5625 46.875 C-9.52318359 46.20984375 -9.48386719 45.5446875 -9.44335938 44.859375 C-9.187848 40.84981183 -8.73217587 36.95005804 -8 33 C-7.34 33 -6.68 33 -6 33 C-6.3403125 32.0409375 -6.3403125 32.0409375 -6.6875 31.0625 C-7.07441545 27.2707286 -6.06521337 24.88207902 -4.765625 21.35546875 C-3.65271946 17.93158078 -3.38272865 14.57213404 -3 11 C-2.67 10.67 -2.34 10.34 -2 10 C-1.79300437 8.50503158 -1.63320741 7.0033408 -1.5 5.5 C-1.11111111 1.11111111 -1.11111111 1.11111111 0 0 Z " fill="#FD195B" transform="translate(688,474)"/>
<path d="M0 0 C0.57621094 0.21785156 1.15242188 0.43570313 1.74609375 0.66015625 C-1.79594669 4.58170103 -1.79594669 4.58170103 -4.21484375 4.99609375 C-6.45034077 5.50794614 -6.45034077 5.50794614 -7.80859375 7.734375 C-10.62889584 13.08641797 -10.62889584 13.08641797 -10.81640625 18.97265625 C-7.95938416 23.88673425 -5.84048194 26.95314701 -0.25390625 28.66015625 C-0.58390625 29.32015625 -0.91390625 29.98015625 -1.25390625 30.66015625 C-5.8453257 30.39007275 -7.92298402 28.43265302 -11.01953125 25.328125 C-13.92275302 21.40510064 -13.72720965 16.35678229 -13.25390625 11.66015625 C-11.58497402 6.44474304 -8.49443567 3.89709505 -4.2890625 0.6640625 C-2.25390625 -0.33984375 -2.25390625 -0.33984375 0 0 Z " fill="#FE541C" transform="translate(365.25390625,704.33984375)"/>
<path d="M0 0 C0.556875 0.391875 1.11375 0.78375 1.6875 1.1875 C0.759375 1.39375 -0.16875 1.6 -1.125 1.8125 C-5.22142519 3.57958538 -5.67090961 5.1226095 -7.3125 9.1875 C-7.910625 10.115625 -8.50875 11.04375 -9.125 12 C-10.80206264 16.50158919 -10.10439782 19.79289086 -8.3125 24.1875 C-5.4030712 27.8832609 -2.79175169 29.77973518 1.6875 31.1875 C1.3575 31.8475 1.0275 32.5075 0.6875 33.1875 C-5.6017432 31.57862383 -8.75924491 28.51738263 -12.3125 23.1875 C-13.56534839 15.26158547 -11.88321905 8.73137098 -7.3125 2.1875 C-3.4433311 -1.20981903 -3.4433311 -1.20981903 0 0 Z " fill="#FD501D" transform="translate(280.3125,556.8125)"/>
<path d="M0 0 C2.52527068 4.15478497 1.88433699 6.82034725 0.82421875 11.3984375 C-0.90335073 16.85133453 -3.55422068 20.71486283 -7.8125 24.5 C-11.90378622 26.42531116 -14.52234953 26.30880348 -19 26 C-15.99382731 22.99382731 -13.17618402 23.40414684 -9 23 C-9.33 22.01 -9.66 21.02 -10 20 C-9.07960938 19.90138672 -9.07960938 19.90138672 -8.140625 19.80078125 C-5.80488688 19.18263506 -5.80488688 19.18263506 -4.734375 16.85546875 C-4.40953125 15.97503906 -4.0846875 15.09460938 -3.75 14.1875 C-3.41484375 13.31480469 -3.0796875 12.44210937 -2.734375 11.54296875 C-1.8150341 8.80065378 -1.8150341 8.80065378 -2 5 C-1.34 5 -0.68 5 0 5 C-0.33 4.01 -0.66 3.02 -1 2 C-0.67 1.34 -0.34 0.68 0 0 Z " fill="#FD1368" transform="translate(740,389)"/>
<path d="M0 0 C3.87857442 1.73867129 6.28404292 3.32375128 7.984375 7.3046875 C8.23703125 8.15289063 8.4896875 9.00109375 8.75 9.875 C9.01296875 10.71804688 9.2759375 11.56109375 9.546875 12.4296875 C10.66064978 18.74747892 7.53893568 24.78777997 4 29.875 C2 32 2 32 -1 33 C-1.33 32.34 -1.66 31.68 -2 31 C-1.236875 30.505 -0.47375 30.01 0.3125 29.5 C4.3306669 25.76217033 5.83282938 22.05332213 6.1328125 16.57421875 C5.79042098 10.09899097 3.51601479 5.37132886 0 0 Z " fill="#FD4A2E" transform="translate(438,669)"/>
<path d="M0 0 C0.66 0.66 1.32 1.32 2 2 C1.278125 2.144375 0.55625 2.28875 -0.1875 2.4375 C-4.51978263 4.84432368 -6.30410596 8.4210861 -8 13 C-8.3785695 16.14212689 -8.25234255 18.82048392 -8 22 C-9.33333333 22 -10.66666667 22 -12 22 C-12.4400827 14.95867678 -11.19214548 9.58560748 -6.5625 4.125 C-4.39715224 2.32934576 -2.58861422 1.05462061 0 0 Z " fill="#FD452A" transform="translate(317,475)"/>
<path d="M0 0 C0.33 0 0.66 0 1 0 C0.35937222 6.91166197 -0.84189942 13.54586856 -2.375 20.3125 C-2.58382812 21.28767578 -2.79265625 22.26285156 -3.0078125 23.26757812 C-3.21921875 24.20666016 -3.430625 25.14574219 -3.6484375 26.11328125 C-3.83583496 26.95673096 -4.02323242 27.80018066 -4.21630859 28.66918945 C-5.07899047 31.23492897 -6.27360541 32.93326926 -8 35 C-7.87447754 34.40719238 -7.74895508 33.81438477 -7.61962891 33.20361328 C-6.29438912 26.78725439 -5.26819643 20.36434549 -4.375 13.875 C-4.17390625 12.44027344 -4.17390625 12.44027344 -3.96875 10.9765625 C-3.64322612 8.65139193 -3.32034731 6.32588839 -3 4 C-2.01 4 -1.02 4 0 4 C0 2.68 0 1.36 0 0 Z " fill="#FE3B29" transform="translate(551,693)"/>
<path d="M0 0 C0.66 0 1.32 0 2 0 C0.59522954 3.39486195 -0.88197299 5.06028622 -4 7 C-6.30328369 7.36076355 -6.30328369 7.36076355 -8.86035156 7.34057617 C-9.82104553 7.34034958 -10.7817395 7.34012299 -11.77154541 7.33988953 C-12.80084167 7.32440567 -13.83013794 7.30892181 -14.890625 7.29296875 C-16.48025055 7.28660149 -16.48025055 7.28660149 -18.10198975 7.28010559 C-21.48491887 7.2633203 -24.86725109 7.22566755 -28.25 7.1875 C-30.54426223 7.17245301 -32.8385338 7.15876463 -35.1328125 7.14648438 C-40.7554118 7.11341728 -46.37766325 7.06321903 -52 7 C-52 6.67 -52 6.34 -52 6 C-51.42228348 5.99857498 -50.84456696 5.99714996 -50.24934387 5.99568176 C-44.23044498 5.9759787 -38.21255942 5.92169247 -32.1940918 5.84741211 C-29.94872307 5.82423055 -27.70324558 5.80983605 -25.45776367 5.80444336 C-22.22766327 5.7951553 -18.99927391 5.75416577 -15.76953125 5.70703125 C-14.26613945 5.71293022 -14.26613945 5.71293022 -12.7323761 5.71894836 C-6.83504061 5.62577503 -6.83504061 5.62577503 -1.9519043 2.45581055 C-0.98571167 1.24018433 -0.98571167 1.24018433 0 0 Z " fill="#FD3610" transform="translate(540,729)"/>
<path d="M0 0 C0.66 0.33 1.32 0.66 2 1 C1.68019988 8.37139265 0.45794145 15.40246727 -3 22 C-5.13671875 23.81640625 -5.13671875 23.81640625 -7 25 C-6.690625 24.44957031 -6.38125 23.89914062 -6.0625 23.33203125 C-4.88881155 20.75595771 -4.44236109 18.4799044 -4 15.6875 C-3.08019081 10.26279855 -1.74020745 5.22062236 0 0 Z " fill="#FE1B55" transform="translate(676,528)"/>
<path d="M0 0 C0.57492187 0.2165625 1.14984375 0.433125 1.7421875 0.65625 C-1.79823803 4.57600684 -1.79823803 4.57600684 -4.2265625 5 C-6.45376189 5.49766678 -6.45376189 5.49766678 -7.7421875 7.72265625 C-8.36867188 8.95822266 -8.36867188 8.95822266 -9.0078125 10.21875 C-9.43578125 11.04503906 -9.86375 11.87132812 -10.3046875 12.72265625 C-10.61921875 13.36074219 -10.93375 13.99882813 -11.2578125 14.65625 C-12.5706968 12.0304814 -12.09023161 10.2923293 -11.25390625 7.546875 C-9.17387419 3.59889258 -4.65271745 -0.70837221 0 0 Z " fill="#FE602D" transform="translate(365.2578125,704.34375)"/>
<path d="M0 0 C0.33 0 0.66 0 1 0 C1.33 4.62 1.66 9.24 2 14 C3.32 14.33 4.64 14.66 6 15 C6 16.32 6 17.64 6 19 C8.475 19.99 8.475 19.99 11 21 C10.34 21.33 9.68 21.66 9 22 C3.91127334 19.33998379 1.81175557 16.72427536 -0.31640625 11.390625 C-1.35677688 7.75230027 -1.33614628 4.76483838 -1 1 C-0.67 0.67 -0.34 0.34 0 0 Z " fill="#FE4C1E" transform="translate(326,643)"/>
<path d="M0 0 C0.33 0 0.66 0 1 0 C1.22554124 6.54069595 0.8925942 11.25268584 -2.9375 16.8125 C-5 19 -5 19 -8 20 C-8.33 19.34 -8.66 18.68 -9 18 C-8.236875 17.505 -7.47375 17.01 -6.6875 16.5 C-1.93356688 12.07773663 -0.79009426 6.32075407 0 0 Z " fill="#FE4220" transform="translate(445,682)"/>
<path d="M0 0 C2.7729519 2.7729519 2.33191346 4.57263731 2.375 8.4375 C2.40335937 9.59121094 2.43171875 10.74492188 2.4609375 11.93359375 C2 15 2 15 -2 18 C-1.34 12.06 -0.68 6.12 0 0 Z " fill="#FE2A36" transform="translate(452,526)"/>
<path d="M0 0 C0.5775 0.37125 1.155 0.7425 1.75 1.125 C0.821875 1.33125 -0.10625 1.5375 -1.0625 1.75 C-5.0865933 3.48588338 -5.57767517 5.19503666 -7.25 9.125 C-8.24 9.62 -8.24 9.62 -9.25 10.125 C-8.85246179 8.66133658 -8.43118616 7.2041065 -8 5.75 C-7.76796875 4.93789063 -7.5359375 4.12578125 -7.296875 3.2890625 C-6.25 1.125 -6.25 1.125 -4.28125 -0.21875 C-2.25 -0.875 -2.25 -0.875 0 0 Z " fill="#FD612F" transform="translate(280.25,556.875)"/>
<path d="M0 0 C0.33 0 0.66 0 1 0 C2.28571429 8.42857143 2.28571429 8.42857143 1 13 C0.01 12.67 -0.98 12.34 -2 12 C-1 3.42857143 -1 3.42857143 0 0 Z " fill="#FD4852" transform="translate(565,623)"/>
<path d="M0 0 C0.66 0.66 1.32 1.32 2 2 C0.8553125 2.4021875 0.8553125 2.4021875 -0.3125 2.8125 C-2.90496926 3.95800967 -4.08815544 4.99711522 -6 7 C-6.66 7 -7.32 7 -8 7 C-6.86500606 3.70851757 -6.00716624 3.0040131 -2.875 1.25 C-1.92625 0.8375 -0.9775 0.425 0 0 Z " fill="#FD412B" transform="translate(317,475)"/>
<path d="M0 0 C1.61949011 2.57213134 2.04408751 3.67669159 1.625 6.75 C1.41875 7.4925 1.2125 8.235 1 9 C0.01 8.67 -0.98 8.34 -2 8 C-2 5.69 -2 3.38 -2 1 C-1.34 0.67 -0.68 0.34 0 0 Z " fill="#FD5C42" transform="translate(307,489)"/>
<path d="M0 0 C2.31 0 4.62 0 7 0 C4.63707344 2.52588702 3.33537489 3.88820837 0 5 C-0.66 4.34 -1.32 3.68 -2 3 C-1.34 3 -0.68 3 0 3 C0 2.01 0 1.02 0 0 Z " fill="#FE2358" transform="translate(660,554)"/>
<path d="M0 0 C0.66 0 1.32 0 2 0 C1.34 3.96 0.68 7.92 0 12 C-2 8 -2 8 -1.6875 6 C-1.460625 5.34 -1.23375 4.68 -1 4 C-0.814375 3.2575 -0.62875 2.515 -0.4375 1.75 C-0.293125 1.1725 -0.14875 0.595 0 0 Z " fill="#FD2170" transform="translate(743,378)"/>
</svg>
