<svg xmlns="http://www.w3.org/2000/svg" version="1.1" viewBox="104.6755328 364.992512 849.92 296.96" style="max-height: 500px" width="849.92" height="296.96">
<path transform="translate(0,0)" fill="#FEFCF9" d="M0 0 C337.92 0 675.84 0 1024 0 C1024 337.92 1024 675.84 1024 1024 C686.08 1024 348.16 1024 0 1024 C0 686.08 0 348.16 0 0 Z"/>
<path transform="translate(251.73583984375,383.659423828125)" fill="#FE435A" d="M0 0 C1.62765995 0.00084848 3.25532105 0.00036683 4.88298035 -0.00132751 C9.25608216 -0.00218028 13.62893179 0.01532751 18.00197554 0.03639436 C22.589001 0.05528246 27.17603369 0.05692108 31.76309204 0.06047058 C40.42896811 0.06975568 49.09472922 0.09432107 57.76055491 0.12451905 C67.63491969 0.15817379 77.50929027 0.17457678 87.38369823 0.18960536 C107.67724944 0.22087419 127.97069752 0.27356513 148.26416016 0.34057617 C145.92656956 13.31485944 143.54009082 26.27662524 141.01416016 39.21557617 C140.74320482 40.60878162 140.47237159 42.00201082 140.20166016 43.39526367 C139.5572149 46.71063912 138.91118601 50.02570325 138.26416016 53.34057617 C123.7820726 53.36396491 109.29998798 53.38151814 94.8178854 53.39238834 C88.09318344 53.39753861 81.36849324 53.40455709 74.64379883 53.41601562 C68.15342649 53.42688543 61.66306636 53.43286171 55.17268562 53.43545341 C52.6971931 53.43730027 50.22170124 53.44090669 47.74621391 53.44630623 C44.27749058 53.45357092 40.80881761 53.45456481 37.34008789 53.45410156 C35.80691422 53.45949448 35.80691422 53.45949448 34.24276733 53.46499634 C29.13311534 53.45761819 24.30106708 53.20135335 19.26416016 52.34057617 C16.40928192 52.11698465 13.56450638 52.06624745 10.70166016 52.02807617 C9.97269531 51.99907227 9.24373047 51.97006836 8.49267578 51.94018555 C3.30160224 51.87944391 0.3348151 52.84532208 -3.73583984 56.34057617 C-6.24463292 59.93674982 -5.93886297 62.89868196 -5.32568359 67.09448242 C-4.12948248 71.64955287 -1.65461422 74.19385303 2.24462891 76.52416992 C10.62401443 80.57297036 19.5399757 81.6350035 28.75292969 81.65942383 C29.64196487 81.66946945 30.53100006 81.67951508 31.44697571 81.68986511 C34.34696889 81.72043027 37.24687094 81.73765721 40.14697266 81.75463867 C42.1729306 81.77337183 44.19888092 81.79294681 46.224823 81.81332397 C51.52815229 81.86442431 56.83150682 81.90416769 62.13494873 81.94146729 C67.55828989 81.98164621 72.98152808 82.03267488 78.40478516 82.08276367 C89.02450426 82.17926098 99.6442818 82.26374879 110.26416016 82.34057617 C108.83729194 90.98406273 107.34524957 99.60841343 105.71459961 108.21582031 C105.45375643 109.60244228 105.19698598 110.98983597 104.9440918 112.37792969 C104.57199182 114.4181627 104.18704591 116.45560677 103.79931641 118.49291992 C103.57638916 119.68908936 103.35346191 120.88525879 103.1237793 122.11767578 C102.04314264 126.16921925 100.80315366 129.34389466 97.21337891 131.66870117 C96.46701172 131.97291992 95.72064453 132.27713867 94.95166016 132.59057617 C94.21302734 132.90510742 93.47439453 133.21963867 92.71337891 133.54370117 C87.2815385 135.31099853 81.90664853 135.47926201 76.24072266 135.43823242 C75.49454681 135.43681747 74.74837097 135.43540253 73.97958374 135.4339447 C71.61606697 135.42838491 69.25264789 135.41584007 66.88916016 135.40307617 C65.27848445 135.39805597 63.66780724 135.39349397 62.05712891 135.3894043 C58.12610217 135.37842868 54.19514768 135.36119213 50.26416016 135.34057617 C50.16232422 136.64510742 50.06048828 137.94963867 49.95556641 139.29370117 C49.18202522 146.97261085 47.65747758 154.51873517 46.20166016 162.09057617 C46.04998383 162.88704559 45.8983075 163.68351501 45.74203491 164.50411987 C43.03927076 178.68893051 40.12661989 192.82680111 37.10571289 206.94702148 C36.78992381 208.42323381 36.47426144 209.89947325 36.15869141 211.37573242 C36.01598753 212.0430882 35.87328365 212.71044397 35.72625542 213.39802265 C34.48757418 219.22347843 33.30831062 225.05980437 32.14575195 230.90087891 C31.87240147 232.271068 31.87240147 232.271068 31.59352875 233.66893768 C31.14995308 235.89272733 30.70683754 238.11660756 30.26416016 240.34057617 C16.54715898 240.43325506 2.8302323 240.50433079 -10.8870182 240.54782486 C-17.25649703 240.56869981 -23.62576165 240.59701647 -29.99511719 240.64233398 C-36.14186077 240.68579396 -42.2883983 240.70971397 -48.43528366 240.72008514 C-50.78045266 240.72747615 -53.12561039 240.74190897 -55.47069168 240.7634964 C-58.75544866 240.79253146 -62.0393541 240.796532 -65.32421875 240.79467773 C-66.29382538 240.80905884 -67.26343201 240.82343994 -68.26242065 240.83825684 C-74.07511593 240.80274933 -77.27589832 240.15178978 -81.73583984 236.34057617 C-84.11501282 233.31253784 -84.09247737 230.09606565 -83.99365234 226.30541992 C-83.61533739 223.42220142 -82.5276484 221.59692768 -80.73583984 219.34057617 C-77.57735576 217.23492012 -76.78898081 217.08598135 -73.17602539 217.0534668 C-72.25464279 217.04005249 -71.33326019 217.02663818 -70.38395691 217.01281738 C-69.39019547 217.00754028 -68.39643402 217.00226318 -67.37255859 216.99682617 C-66.34781937 216.98220337 -65.32308014 216.96758057 -64.26728821 216.95251465 C-60.9860118 216.90595955 -57.70479581 216.87180297 -54.42333984 216.84057617 C-50.11452399 216.79937381 -45.80612996 216.74563681 -41.49755859 216.68432617 C-40.01602547 216.67641052 -40.01602547 216.67641052 -38.50456238 216.66833496 C-33.57687124 216.59732209 -29.2926915 216.45373834 -24.73583984 214.34057617 C-22.54334078 210.75285043 -22.39104098 207.47816258 -22.73583984 203.34057617 C-23.43069249 200.55834239 -23.43069249 200.55834239 -24.73583984 198.34057617 C-28.06068899 197.23229312 -30.53731632 197.21601332 -34.03979492 197.21459961 C-35.99246025 197.20888947 -35.99246025 197.20888947 -37.98457336 197.20306396 C-38.68021204 197.2028701 -39.37585072 197.20267624 -40.09256935 197.2024765 C-43.02365597 197.19905411 -45.95452213 197.17768236 -48.88553143 197.15724564 C-54.34030252 197.11926645 -59.79483737 197.08795923 -65.24975586 197.09008789 C-69.04663712 197.09087643 -72.84270957 197.0674526 -76.6393795 197.02820587 C-78.08295744 197.01776602 -79.52662896 197.01620709 -80.97022438 197.02385712 C-93.68387295 197.08450239 -93.68387295 197.08450239 -97.60571289 193.92358398 C-100.8610907 189.9760886 -101.01050803 187.58123345 -100.96240234 182.60229492 C-100.65850349 179.56854604 -99.64535929 177.69075396 -97.73583984 175.34057617 C-94.58025026 173.76278138 -91.19080925 174.18745709 -87.7253418 174.18286133 C-86.89748672 174.17778061 -86.06963165 174.17269989 -85.21669006 174.16746521 C-83.41496661 174.15674934 -81.61322974 174.14813395 -79.8114872 174.14134598 C-76.95711418 174.1295685 -74.10289326 174.11011691 -71.24858093 174.08822632 C-63.13151129 174.02658368 -55.01445551 173.97262522 -46.8972168 173.93920898 C-41.93458606 173.91822776 -36.97222973 173.88289206 -32.00975609 173.83845139 C-30.12042669 173.82431345 -28.23104871 173.81557394 -26.34166908 173.812397 C-23.69192579 173.80747156 -21.04290606 173.78427022 -18.39331055 173.75708008 C-17.61745605 173.76008621 -16.84160156 173.76309235 -16.04223633 173.76618958 C-10.90590066 173.68817583 -7.3036978 172.73513118 -2.73583984 170.34057617 C-0.25688207 167.4617865 0.22129177 165.67739922 0.70166016 161.90307617 C0.18624372 157.70611378 -1.09622993 155.60127077 -3.73583984 152.34057617 C-6.14021445 151.13838887 -7.61705923 151.22101051 -10.30181885 151.22946167 C-11.74437798 151.22995262 -11.74437798 151.22995262 -13.21607971 151.23045349 C-14.80415688 151.23831627 -14.80415688 151.23831627 -16.42431641 151.24633789 C-18.73024482 151.24912506 -21.03617338 151.25179487 -23.34210205 151.25436401 C-24.56948341 151.25741421 -25.79686478 151.2604644 -27.06143951 151.26360703 C-32.8705366 151.27374303 -38.67953728 151.25769402 -44.48861837 151.24378228 C-53.4124472 151.22259984 -62.33594979 151.20886889 -71.25976562 151.2409668 C-77.92133554 151.26481663 -84.58195798 151.25211224 -91.24352264 151.21796036 C-93.78403227 151.21117979 -96.32460697 151.21690188 -98.8650589 151.23531723 C-102.42088523 151.25943061 -105.97405225 151.24031008 -109.52978516 151.21118164 C-110.58040634 151.22856888 -111.63102753 151.24595612 -112.71348572 151.26387024 C-119.68235118 151.14503501 -119.68235118 151.14503501 -122.7301712 148.81767654 C-125.62991676 145.54765665 -127.58505077 142.79352015 -127.54833984 138.27807617 C-127.57541016 137.48272461 -127.60248047 136.68737305 -127.63037109 135.86791992 C-126.20297673 131.83506336 -123.31905398 129.57531227 -119.73583984 127.34057617 C-116.74807659 126.54578189 -113.92846487 126.5696548 -110.85058594 126.64697266 C-109.98952744 126.64437439 -109.12846893 126.64177612 -108.24131775 126.63909912 C-106.38288277 126.63739131 -104.52439408 126.6494169 -102.66611862 126.67382622 C-99.72317497 126.71213993 -96.78218045 126.71371932 -93.83901978 126.70606995 C-87.59598573 126.69676123 -81.35370257 126.73564278 -75.11083984 126.77807617 C-67.86767055 126.82280338 -60.6251611 126.84775361 -53.38185501 126.83351326 C-50.48476521 126.83662907 -47.58908162 126.8703475 -44.69223022 126.90562439 C-42.91558871 126.90674598 -41.13894569 126.90653775 -39.36230469 126.90478516 C-38.55906265 126.92283707 -37.75582062 126.94088898 -36.92823792 126.95948792 C-32.82560027 126.92308159 -30.99115811 126.54731305 -27.75918579 123.93031311 C-24.80491934 120.14906504 -24.27324615 118.1515506 -24.73583984 113.34057617 C-27.07728202 108.91785206 -29.25344196 106.5143184 -33.73583984 104.34057617 C-36.94955142 103.90497949 -36.94955142 103.90497949 -40.46630859 103.98754883 C-41.12225006 103.98538864 -41.77819153 103.98322845 -42.45401001 103.98100281 C-43.87100279 103.97792694 -45.28802248 103.98148884 -46.70498657 103.99101639 C-48.95018286 104.00480351 -51.19450014 103.99828999 -53.43969727 103.98617554 C-59.82004681 103.95527693 -66.20018856 103.96009977 -72.58056641 103.98022461 C-76.48988586 103.99115175 -80.39854238 103.97793529 -84.30776978 103.95032883 C-85.79407337 103.94489581 -87.2804436 103.94893312 -88.76669312 103.96272659 C-90.84698649 103.98181344 -92.92511409 103.97035804 -95.00537109 103.95239258 C-96.18719971 103.95477936 -97.36902832 103.95716614 -98.58666992 103.95962524 C-102.6746036 103.15603839 -104.16234219 101.5472013 -106.73583984 98.34057617 C-107.43505859 95.40307617 -107.43505859 95.40307617 -107.42333984 92.34057617 C-107.44783203 91.32995117 -107.47232422 90.31932617 -107.49755859 89.27807617 C-106.62541395 85.91472861 -105.27924484 84.51645716 -102.58155823 82.38369751 C-99.20732521 80.47672487 -95.84224706 80.72676777 -92.05615234 80.85229492 C-90.83700638 80.86290703 -90.83700638 80.86290703 -89.5932312 80.87373352 C-87.01480361 80.90156944 -84.43860322 80.96428207 -81.86083984 81.02807617 C-80.10566303 81.05317326 -78.35045194 81.07598396 -76.59521484 81.09643555 C-72.30790737 81.15135994 -68.02225029 81.2375527 -63.73583984 81.34057617 C-64.05198242 80.00518799 -64.05198242 80.00518799 -64.37451172 78.64282227 C-66.0299815 71.35583383 -67.29378091 64.44437371 -67.23583984 56.96557617 C-67.23011963 56.07636475 -67.22439941 55.18715332 -67.21850586 54.27099609 C-66.87739366 41.45918923 -63.19539939 30.15847963 -54.73583984 20.34057617 C-53.78451172 19.19008789 -53.78451172 19.19008789 -52.81396484 18.01635742 C-38.84828644 2.55435633 -19.79601185 -0.14666351 0 0 Z"/>
<path transform="translate(894,472)" fill="#0C2439" d="M0 0 C5.9966058 4.18281763 10.74082625 8.92663457 13 16 C13.495 18.97 13.495 18.97 14 22 C8.39 22 2.78 22 -3 22 C-3.99 19.69 -4.98 17.38 -6 15 C-11.69015805 10.62295534 -18.05134194 10.3852688 -25 11 C-29.12546455 12.50016893 -31.96026584 14.03385024 -34 18 C-34.66680368 20.95720628 -34.66680368 20.95720628 -34 24 C-29.7147822 29.98795335 -23.68930566 30.82390393 -16.8125 32.5 C7.48889094 38.52847562 7.48889094 38.52847562 13.25 48.0703125 C16.89856689 55.54480718 16.59728719 61.70714397 14.02734375 69.51171875 C10.66019938 77.66712165 4.91967968 82.34834153 -3 86 C-13.41224484 89.63246773 -26.51349643 89.72546246 -36.671875 85.25390625 C-44.03306359 81.28923924 -48.99329798 77.00044189 -52 69 C-52.62111235 65.94078992 -52.85078906 63.13342975 -53 60 C-44.585 59.505 -44.585 59.505 -36 59 C-35.2265625 61.10375 -35.2265625 61.10375 -34.4375 63.25 C-32.73345322 66.9684526 -31.18744636 69.58719999 -27.32421875 71.4140625 C-19.59536461 73.36251312 -11.88691508 73.06999639 -5 69 C-2.57627851 66.65706923 -2.06145776 65.41264495 -1.5625 62.0625 C-2.12064335 58.15549653 -3.14300796 56.71047963 -6 54 C-11.29639183 51.41918821 -16.60223448 49.99589658 -22.3125 48.625 C-29.3587431 46.84956334 -35.77908195 44.87021624 -42 41 C-42.928125 40.443125 -43.85625 39.88625 -44.8125 39.3125 C-49.37763703 34.486498 -52.25616391 28.68120234 -52.625 22 C-52.20701661 14.8152044 -49.00932193 8.50427769 -43.75 3.625 C-31.74491344 -5.64807561 -13.32054271 -7.50334368 0 0 Z"/>
<path transform="translate(694.25,473.625)" fill="#0B2237" d="M0 0 C5.40704853 4.4309282 9.71170698 9.86886225 10.625 16.9375 C10.66625 18.071875 10.7075 19.20625 10.75 20.375 C5.47 20.375 0.19 20.375 -5.25 20.375 C-6.24 18.395 -7.23 16.415 -8.25 14.375 C-13.65051271 9.25143666 -18.35680143 9.08511029 -25.55078125 9.15234375 C-29.03571653 9.43981309 -31.38222622 10.38961815 -34.25 12.375 C-36.73038907 16.0955836 -36.71337203 17.97296571 -36.25 22.375 C-32.62651079 28.04654832 -24.42714283 29.05781903 -18.3125 30.8046875 C-17.47976563 31.04316406 -16.64703125 31.28164063 -15.7890625 31.52734375 C-14.09839565 32.00853354 -12.40566118 32.48251792 -10.7109375 32.94921875 C-1.0067325 35.75833072 6.33403334 39.46237374 11.85546875 48.10546875 C14.09954815 53.79896277 13.7061952 62.1121071 11.9921875 67.9609375 C11.04409393 69.90938177 10.01261384 71.6169856 8.75 73.375 C8.1725 74.261875 7.595 75.14875 7 76.0625 C-0.78446829 84.06320352 -10.20495213 86.66238533 -21.0625 86.8125 C-31.58413314 86.73256151 -40.8640353 84.87635844 -48.62890625 77.2890625 C-53.56593133 71.45980398 -54.78071016 65.88363746 -55.25 58.375 C-49.64 58.375 -44.03 58.375 -38.25 58.375 C-37.734375 59.6125 -37.21875 60.85 -36.6875 62.125 C-34.91841591 65.54199803 -33.22567774 68.00423519 -29.640625 69.75 C-22.85777638 71.52329376 -15.03824142 71.95446624 -8.87109375 68.4609375 C-5.22951855 65.56287318 -4.4456974 63.94057917 -3.875 59.375 C-4.3462356 55.60511522 -5.4024982 54.80101272 -8.25 52.375 C-10.45455391 51.22253144 -10.45455391 51.22253144 -12.9375 50.4375 C-13.89785156 50.1075 -14.85820313 49.7775 -15.84765625 49.4375 C-19.09833074 48.42236399 -22.36178493 47.48797168 -25.64038086 46.56884766 C-36.73300298 43.4348456 -45.39349325 40.19227103 -52.25 30.375 C-54.99226743 24.77123612 -55.37101237 18.69299642 -53.375 12.78515625 C-49.41772474 4.12861661 -44.01103623 -0.22292969 -35.36328125 -3.86328125 C-24.05840049 -7.93805343 -9.98975072 -6.77271235 0 0 Z"/>
<path transform="translate(761,496)" fill="#0B2136" d="M0 0 C5.05561859 4.17683008 8.50395634 9.92798899 9.30221558 16.48088074 C9.44115396 19.38443242 9.49339746 22.27677527 9.51171875 25.18359375 C9.52966995 26.23909927 9.54762115 27.2946048 9.56611633 28.38209534 C9.62004359 31.73385698 9.65405917 35.08547762 9.6875 38.4375 C9.72068853 40.7181185 9.7551796 42.99871844 9.79101562 45.27929688 C9.87576025 50.85276259 9.9426556 56.42618775 10 62 C4.39 62 -1.22 62 -7 62 C-7.495 58.535 -7.495 58.535 -8 55 C-8.40089844 55.39832031 -8.80179688 55.79664063 -9.21484375 56.20703125 C-14.75325566 61.36868045 -20.02122807 63.50265351 -27.5 64.4375 C-34.02068037 63.62241495 -40.39043849 60.74513685 -45 56 C-47.99164453 50.73883203 -48.92599705 45.93479925 -48 40 C-46.07939361 34.28390955 -42.24714248 30.75259934 -37 28 C-27.40968834 23.66403492 -17.35258432 22.87421823 -7 22 C-7.42369072 20.3713449 -7.8644623 18.74712622 -8.3125 17.125 C-8.55613281 16.22007812 -8.79976562 15.31515625 -9.05078125 14.3828125 C-9.86669852 11.67886681 -9.86669852 11.67886681 -13 10 C-17.6531944 9.33192868 -21.69547452 9.04546916 -25.5625 11.875 C-27.01759039 13.92623384 -27.01759039 13.92623384 -28 16 C-33.28 16 -38.56 16 -44 16 C-43.79411755 10.13235025 -42.88759577 6.82966814 -38.8125 2.5390625 C-28.32806508 -6.36366888 -11.71008723 -6.53765132 0 0 Z"/>
<path transform="translate(501.4375,492.5625)" fill="#0C2237" d="M0 0 C0.90298828 -0.01998047 1.80597656 -0.03996094 2.73632812 -0.06054688 C10.43960384 -0.05496883 15.77928206 1.77798064 21.375 7.125 C26.21964066 14.46117015 27.01673783 21.74548888 27.07421875 30.37890625 C27.09216995 31.38718979 27.11012115 32.39547333 27.12861633 33.43431091 C27.18236129 36.62283267 27.21649973 39.81120786 27.25 43 C27.28320469 45.17515045 27.31769723 47.35028164 27.35351562 49.52539062 C27.43806703 54.82932069 27.50504823 60.13320999 27.5625 65.4375 C21.9525 65.4375 16.3425 65.4375 10.5625 65.4375 C10.0675 61.9725 10.0675 61.9725 9.5625 58.4375 C8.86125 59.200625 8.16 59.96375 7.4375 60.75 C2.01959131 65.81456682 -3.78096721 67.88173358 -11.1484375 67.78515625 C-16.87728836 66.91507481 -21.93695315 63.97556052 -25.9375 59.875 C-29.42814029 54.20270953 -30.10227072 50.09575914 -29.4375 43.4375 C-27.2319578 36.94340354 -22.58470296 33.36516976 -16.6875 30.3125 C-8.46223932 26.84180682 1.66811528 25.4375 10.5625 25.4375 C8.99371094 19.52932774 8.99371094 19.52932774 5.875 14.375 C2.42422847 12.97603857 -0.81484991 12.76903481 -4.4375 13.4375 C-7.2475346 15.23113911 -8.94690468 16.45630935 -10.4375 19.4375 C-15.7175 19.4375 -20.9975 19.4375 -26.4375 19.4375 C-26.4375 13.18063815 -26.15013509 12.05320849 -22.4375 7.4375 C-15.63001054 0.99798295 -9.00425418 -0.07039573 0 0 Z"/>
<path transform="translate(827.17578125,497.87890625)" fill="#0B2236" d="M0 0 C5.75850408 6.69564821 6.42339529 14.20759056 6.43359375 22.71875 C6.45013 23.79362167 6.46666626 24.86849335 6.48370361 25.97593689 C6.53193709 29.37854874 6.55350033 32.78071444 6.57421875 36.18359375 C6.60239895 38.50327736 6.63232921 40.8229404 6.6640625 43.14257812 C6.73768983 48.80204657 6.78741515 54.46127091 6.82421875 60.12109375 C1.54421875 60.12109375 -3.73578125 60.12109375 -9.17578125 60.12109375 C-9.17578125 57.48109375 -9.17578125 54.84109375 -9.17578125 52.12109375 C-9.83578125 52.12109375 -10.49578125 52.12109375 -11.17578125 52.12109375 C-11.38203125 52.69859375 -11.58828125 53.27609375 -11.80078125 53.87109375 C-14.206886 57.80835606 -17.90770549 59.56975646 -22.05078125 61.37109375 C-29.92217814 63.260229 -35.22482899 61.96205972 -42.17578125 58.12109375 C-46.8199439 55.19325208 -48.54388463 52.36034078 -50.17578125 47.12109375 C-51.16476442 41.07851526 -50.20452701 36.8214514 -46.640625 31.8359375 C-38.03891788 21.7662057 -22.46608613 21.22780367 -10.17578125 20.12109375 C-11.03243203 14.22733436 -11.03243203 14.22733436 -13.73828125 9.05859375 C-17.54208203 7.59559345 -21.15803277 7.56717622 -25.17578125 8.12109375 C-28.46509639 9.8479842 -28.98980795 10.56317385 -30.17578125 14.12109375 C-35.45578125 14.12109375 -40.73578125 14.12109375 -46.17578125 14.12109375 C-46.17578125 7.04183888 -46.1331994 5.86197708 -42.08984375 0.91796875 C-31.20356544 -9.30180273 -11.53161453 -8.14707358 0 0 Z"/>
<path transform="translate(415,469)" fill="#0D263B" d="M0 0 C18.48 0 36.96 0 56 0 C56 4.95 56 9.9 56 15 C43.13 15 30.26 15 17 15 C17 22.92 17 30.84 17 39 C29.54 38.67 42.08 38.34 55 38 C55 43.28 55 48.56 55 54 C42.46 54 29.92 54 17 54 C17.33 65.55 17.66 77.1 18 89 C12.06 89 6.12 89 0 89 C0 59.63 0 30.26 0 0 Z"/>
<path transform="translate(560.875,491.5625)" fill="#0B2135" d="M0 0 C1.28970703 -0.0299707 1.28970703 -0.0299707 2.60546875 -0.06054688 C9.17792394 -0.05556019 14.76578543 1.25183411 19.65136719 5.88500977 C23.73067883 10.58094436 25.125 13.21637261 25.125 19.4375 C20.505 19.4375 15.885 19.4375 11.125 19.4375 C10.465 17.7875 9.805 16.1375 9.125 14.4375 C4.26150154 12.3399235 -2.10841465 12.75249752 -6.9375 14.625 C-9.08139825 16.30192468 -9.08139825 16.30192468 -9.5 18.9375 C-9.11430054 21.56819653 -9.11430054 21.56819653 -6.94921875 22.9453125 C-2.02779869 25.33410852 3.22690333 26.23844373 8.55664062 27.3671875 C15.7765009 29.02366865 22.14694797 31.75684547 27.125 37.4375 C29.05633741 43.23151223 28.68510679 49.33709954 27.125 55.1875 C22.82364116 62.17720811 17.01660115 66.35286137 9.125 68.4375 C5.82196933 68.90207956 2.58307847 69.00919514 -0.75 69 C-1.63042969 68.99830811 -2.51085937 68.99661621 -3.41796875 68.99487305 C-10.51560027 68.7983738 -15.5361048 67.32077832 -20.875 62.4375 C-21.720625 61.674375 -22.56625 60.91125 -23.4375 60.125 C-25.51669579 56.23780787 -25.6129861 52.82623276 -25.875 48.4375 C-20.925 48.4375 -15.975 48.4375 -10.875 48.4375 C-10.545 50.0875 -10.215 51.7375 -9.875 53.4375 C-6.6810093 54.37690903 -3.76223695 54.60194357 -0.4375 54.625 C0.48933594 54.63917969 1.41617188 54.65335938 2.37109375 54.66796875 C5.30333373 54.42257562 7.46361389 53.65951577 10.125 52.4375 C10.455 50.1275 10.785 47.8175 11.125 45.4375 C7.14700743 42.6974406 3.80958742 41.85877692 -0.9375 41.125 C-8.65475549 39.7530646 -16.80334171 37.56903562 -22.46875 31.8203125 C-25.97798873 26.78204832 -26.73246134 21.39155742 -25.875 15.4375 C-21.09597989 4.13442338 -11.67097822 -0.09537947 0 0 Z"/>
<path transform="translate(601,476)" fill="#0A2135" d="M0 0 C5.28 0 10.56 0 16 0 C16 5.61 16 11.22 16 17 C20.62 17 25.24 17 30 17 C30 21.62 30 26.24 30 31 C25.38 31 20.76 31 16 31 C16.11811006 35.80567423 16.24234823 40.61113568 16.37231445 45.41650391 C16.41567538 47.05187653 16.45734961 48.68729477 16.49731445 50.32275391 C16.55498912 52.67103841 16.61869129 55.01909304 16.68359375 57.3671875 C16.70030624 58.10057343 16.71701874 58.83395935 16.73423767 59.58956909 C16.78637962 63.42202308 16.78637962 63.42202308 18 67 C21.63 67 25.26 67 29 67 C29.99 71.95 30.98 76.9 32 82 C23.84817213 83.63036557 15.07417594 84.69829305 7.65234375 80.2734375 C3.72656306 77.24789493 0.91412179 73.97656976 0 69 C-0.08378506 66.09040622 -0.11617895 63.20578759 -0.09765625 60.296875 C-0.0962413 59.45908508 -0.09482635 58.62129517 -0.09336853 57.75811768 C-0.08778197 55.08870843 -0.07523194 52.4193838 -0.0625 49.75 C-0.05748326 47.93750121 -0.05292066 46.12500111 -0.04882812 44.3125 C-0.03781694 39.87496752 -0.02056155 35.43749809 0 31 C-3.3 31 -6.6 31 -10 31 C-10 26.38 -10 21.76 -10 17 C-6.7 17 -3.4 17 0 17 C0 11.39 0 5.78 0 0 Z"/>
<path transform="translate(241.74505615234375,383.87974548339844)" fill="#FE0563" d="M0 0 C0.67720384 -0.00085442 1.35440768 -0.00170885 2.05213284 -0.00258917 C4.31995879 -0.0042355 6.58771066 0.00126354 8.85552979 0.00672913 C10.48171487 0.00701121 12.10790008 0.00685286 13.73408508 0.00628662 C18.14900781 0.00599946 22.56390343 0.0118831 26.97881985 0.01886058 C31.59260865 0.0251076 36.20639805 0.02569899 40.82019043 0.02688599 C49.55718235 0.02999531 58.29416178 0.03820335 67.0311482 0.04823548 C76.97784565 0.05940896 86.9245437 0.06491018 96.87124586 0.06993091 C117.3324855 0.08038628 137.79371389 0.09797804 158.25494385 0.12025452 C157.61442902 3.65330745 156.97320077 7.18623054 156.33184814 10.71913147 C156.06114124 12.21241344 156.06114124 12.21241344 155.78496552 13.73586273 C154.59820456 20.2706234 153.38281533 26.79749818 152.06744385 33.30775452 C151.90308838 34.13726624 151.73873291 34.96677795 151.56939697 35.82142639 C150.9337347 38.98944364 150.27781716 42.05163457 149.25494385 45.12025452 C148.59494385 45.12025452 147.93494385 45.12025452 147.25494385 45.12025452 C148.25129473 36.64541111 149.51052734 28.43702459 151.5244751 20.13587952 C152.21513102 17.2846155 152.85016459 14.43093898 153.44244385 11.55775452 C153.60099854 10.79334045 153.75955322 10.02892639 153.9229126 9.24134827 C154.35804677 6.81942946 154.35804677 6.81942946 154.25494385 3.12025452 C153.66691986 3.12247513 153.07889587 3.12469574 152.47305298 3.12698364 C146.34094858 3.14914431 140.20885559 3.16420611 134.07672119 3.17518616 C131.78960711 3.18020815 129.50249624 3.18702698 127.21539307 3.19569397 C123.92388112 3.20785297 120.6324117 3.21350425 117.34088135 3.21791077 C115.81242081 3.22565269 115.81242081 3.22565269 114.25308228 3.23355103 C109.47100124 3.23392706 104.95630856 3.12669481 100.25494385 2.12025452 C99.92494385 2.78025452 99.59494385 3.44025452 99.25494385 4.12025452 C99.25494385 3.46025452 99.25494385 2.80025452 99.25494385 2.12025452 C98.29797607 2.15054749 97.3410083 2.18084045 96.3550415 2.21205139 C71.09072832 2.98965865 45.84162033 3.21171376 20.56744385 3.18275452 C19.8150367 3.1818985 19.06262955 3.18104248 18.28742218 3.18016052 C8.94323898 3.16874226 -0.40090795 3.14862568 -9.74505615 3.12025452 C-10.07505615 2.46025452 -10.40505615 1.80025452 -10.74505615 1.12025452 C-7.13580439 -0.00586104 -3.76634048 -0.00286196 0 0 Z"/>
<path transform="translate(469,471)" fill="#0E1320" d="M0 0 C0.66 0.33 1.32 0.66 2 1 C2 4.96 2 8.92 2 13 C-10.87 13 -23.74 13 -37 13 C-37 20.92 -37 28.84 -37 37 C-24.46 36.67 -11.92 36.34 1 36 C1 41.28 1 46.56 1 52 C-11.54 52 -24.08 52 -37 52 C-36.67 63.55 -36.34 75.1 -36 87 C-41.94 87 -47.88 87 -54 87 C-53.505 86.01 -53.505 86.01 -53 85 C-48.05 85.33 -43.1 85.66 -38 86 C-38.33 84.68 -38.66 83.36 -39 82 C-39.09341466 79.69547802 -39.13069666 77.38844478 -39.1328125 75.08203125 C-39.13376923 74.42418137 -39.13472595 73.76633148 -39.13571167 73.08854675 C-39.13638993 71.70429386 -39.13456041 70.32003773 -39.13037109 68.93579102 C-39.124992 66.80933586 -39.13034112 64.68308946 -39.13671875 62.55664062 C-39.13605841 61.21093703 -39.13477816 59.86523357 -39.1328125 58.51953125 C-39.13168457 57.29339111 -39.13055664 56.06725098 -39.12939453 54.80395508 C-39 52 -39 52 -38 51 C-35.26105915 50.91141354 -32.5474673 50.88476521 -29.80859375 50.90234375 C-28.98875504 50.9037587 -28.16891632 50.90517365 -27.32423401 50.90663147 C-24.69528618 50.91224711 -22.06642227 50.92480221 -19.4375 50.9375 C-17.65950643 50.94251299 -15.88151154 50.94707624 -14.10351562 50.95117188 C-9.73564455 50.96222161 -5.36783652 50.97949669 -1 51 C-1 47.04 -1 43.08 -1 39 C-2.62010986 39.01571045 -2.62010986 39.01571045 -4.27294922 39.03173828 C-8.27226459 39.06788194 -12.27156546 39.09087984 -16.27099609 39.10986328 C-18.00344265 39.11993376 -19.73587216 39.13359089 -21.46826172 39.15087891 C-23.95544639 39.17508162 -26.44240675 39.18647239 -28.9296875 39.1953125 C-29.70682098 39.20563507 -30.48395447 39.21595764 -31.28463745 39.22659302 C-33.19125493 39.22699271 -35.09731036 39.1223214 -37 39 C-39.60868369 36.39131631 -39.25728913 35.25467636 -39.265625 31.625 C-39.26949219 30.02398437 -39.26949219 30.02398437 -39.2734375 28.390625 C-39.26183594 26.71226562 -39.26183594 26.71226562 -39.25 25 C-39.25773437 23.88109375 -39.26546875 22.7621875 -39.2734375 21.609375 C-39.27085937 20.54203125 -39.26828125 19.4746875 -39.265625 18.375 C-39.26336914 17.39273437 -39.26111328 16.41046875 -39.25878906 15.3984375 C-39 13 -39 13 -37 11 C-34.20315203 10.82474945 -31.5067192 10.76856811 -28.7109375 10.8046875 C-27.48330185 10.80893234 -27.48330185 10.80893234 -26.23086548 10.81326294 C-23.61209607 10.82447468 -20.99366636 10.84958071 -18.375 10.875 C-16.60156743 10.88502853 -14.82812951 10.8941546 -13.0546875 10.90234375 C-8.70299374 10.92441722 -4.3515545 10.95895356 0 11 C0 7.37 0 3.74 0 0 Z"/>
<path transform="translate(388,431)" fill="#FE155B" d="M0 0 C0.66 0 1.32 0 2 0 C2 1.98 2 3.96 2 6 C-12.48208756 6.02338874 -26.96417217 6.04094197 -41.44627476 6.05181217 C-48.17097671 6.05696244 -54.89566692 6.06398092 -61.62036133 6.07543945 C-68.11073367 6.08630926 -74.6010938 6.09228554 -81.09147453 6.09487724 C-83.56696706 6.0967241 -86.04245892 6.10033052 -88.51794624 6.10573006 C-91.98666958 6.11299475 -95.45534254 6.11398864 -98.92407227 6.11352539 C-100.45724594 6.1189183 -100.45724594 6.1189183 -102.02139282 6.12442017 C-107.13104482 6.11704202 -111.96309308 5.86077718 -117 5 C-119.85487823 4.77640848 -122.69965377 4.72567128 -125.5625 4.6875 C-126.29146484 4.65849609 -127.02042969 4.62949219 -127.77148438 4.59960938 C-132.98193066 4.53864106 -135.84650703 5.59591402 -140 9 C-142.39198065 12.30321138 -142.5403461 16.01633287 -143 20 C-143.33 20 -143.66 20 -144 20 C-144.48545147 15.14548525 -144.54064021 11.94176036 -142.0625 7.625 C-136.09271529 1.58832695 -126.98500979 1.43283231 -119 1 C-119 1.66 -119 2.32 -119 3 C-116.69 2.34 -114.38 1.68 -112 1 C-112 1.66 -112 2.32 -112 3 C-101.91642144 3.02317774 -91.83284924 3.04094282 -81.74924946 3.05181217 C-77.06695425 3.0570291 -72.38467729 3.06410517 -67.70239258 3.07543945 C-63.18312081 3.08631058 -58.66386658 3.09228581 -54.14458275 3.09487724 C-52.42102978 3.09672386 -50.69747776 3.10032983 -48.97393227 3.10573006 C-46.5585282 3.11299654 -44.14319645 3.11398857 -41.7277832 3.11352539 C-40.66071136 3.1189183 -40.66071136 3.1189183 -39.57208252 3.12442017 C-35.90320313 3.11681515 -32.58160652 2.74360324 -29 2 C-27.09668379 2.22765959 -25.19354546 2.46015535 -23.296875 2.73779297 C-18.87977201 3.24204133 -14.43971575 3.10230435 -10 3.0625 C-9.03449219 3.05798828 -8.06898438 3.05347656 -7.07421875 3.04882812 C-4.71607911 3.03715417 -2.35807398 3.02078021 0 3 C0 2.01 0 1.02 0 0 Z"/>
<path transform="translate(754,528)" fill="#F8F8F6" d="M0 0 C0.4911306 7.12139366 -0.82611234 10.31829032 -5.5625 15.8125 C-9.02852896 18.67574132 -13.34741922 18.33574679 -17.609375 18.2734375 C-20 18 -20 18 -22.6875 16.4375 C-24 14 -24 14 -24.1875 10.5 C-23 7 -23 7 -20.25 4.75 C-14.18759286 1.81983655 -6.72293789 0 0 0 Z"/>
<path transform="translate(817,528)" fill="#F6F6F5" d="M0 0 C0.37964752 4.74559401 0.48228172 8.06988525 -1.75 12.375 C-5.16751522 16.36210109 -7.22036521 18.05442416 -12.4375 18.875 C-15.46774576 19.10463971 -17.05970588 18.98009804 -20 18 C-22 16 -22 16 -23.0625 12.5625 C-23 9 -23 9 -21.625 6.75 C-15.92312847 2.94875231 -6.87417479 0 0 0 Z"/>
<path transform="translate(512,528)" fill="#F9F9F8" d="M0 0 C0.35631778 6.8888104 -0.45378533 10.87883362 -4.9375 16.375 C-9.65085365 18.87596316 -14.78080852 19.01112541 -20 18 C-22.37777766 15.61210414 -22.94173134 14.34961194 -23.5 11 C-23 8 -23 8 -20.98046875 5.953125 C-17.33614012 3.56496731 -14.02505384 2.68019288 -9.8125 1.75 C-9.08869141 1.57726562 -8.36488281 1.40453125 -7.61914062 1.2265625 C-2.38678075 0 -2.38678075 0 0 0 Z"/>
<path transform="translate(174,601)" fill="#FE612B" d="M0 0 C0.99 0.66 1.98 1.32 3 2 C2.175 2.680625 1.35 3.36125 0.5 4.0625 C-2.32750884 6.82307819 -2.32750884 6.82307819 -2.375 10.625 C-2.12077024 13.98690443 -2.12077024 13.98690443 -1 17 C-1.33 17.66 -1.66 18.32 -2 19 C3.35253068 20.10947497 8.51517562 20.1347088 13.95263672 20.11352539 C15.4316169 20.11374443 15.4316169 20.11374443 16.94047546 20.1139679 C20.18690216 20.11327339 23.43327088 20.10550262 26.6796875 20.09765625 C28.93555673 20.09579043 31.19142636 20.0943673 33.44729614 20.09336853 C39.37545903 20.08955627 45.3035973 20.07973701 51.23175049 20.06866455 C57.28470527 20.05842266 63.33766404 20.05386496 69.390625 20.04882812 C81.26042747 20.03811358 93.13021168 20.02105266 105 20 C105.66 18.68 106.32 17.36 107 16 C106.67 18.31 106.34 20.62 106 23 C92.54376758 23.09268347 79.08761111 23.16375693 65.6311245 23.20724869 C59.38271179 23.22812265 53.13451748 23.25643747 46.88623047 23.30175781 C40.85619586 23.34522137 34.82637133 23.36913855 28.79619217 23.37950897 C26.49567991 23.38689934 24.19517914 23.40133093 21.89475632 23.42292023 C18.67226064 23.45196013 15.45063283 23.45595564 12.22802734 23.45410156 C11.27712219 23.46848267 10.32621704 23.48286377 9.34649658 23.49768066 C3.57906172 23.46177845 0.43129253 22.76897257 -4 19 C-6.37917298 15.97196166 -6.35663753 12.75548948 -6.2578125 8.96484375 C-5.87949755 6.08162525 -4.79180855 4.25635151 -3 2 C-2.01 1.34 -1.02 0.68 0 0 Z"/>
<path transform="translate(164.418701171875,557.86474609375)" fill="#FE7D59" d="M0 0 C1.28812843 0.01419228 1.28812843 0.01419228 2.60227966 0.02867126 C5.44315783 0.06237203 8.28360163 0.11048103 11.12426758 0.15869141 C13.09295005 0.18485615 15.06164465 0.21012335 17.03034973 0.23452759 C22.2139722 0.30120185 27.39734011 0.38008974 32.58074951 0.46148682 C37.86924462 0.5423841 43.15788914 0.61177841 48.4465332 0.68212891 C58.82496752 0.82188642 69.20316933 0.97454195 79.58129883 1.13525391 C79.58129883 1.46525391 79.58129883 1.79525391 79.58129883 2.13525391 C72.70647192 2.30960538 65.83145179 2.47430858 58.95629883 2.63525391 C57.92675079 2.65992737 56.89720276 2.68460083 55.8364563 2.71002197 C44.63633115 2.97439911 33.44497683 3.18394679 22.24145508 3.09619141 C21.36561768 3.09028992 20.48978027 3.08438843 19.58740234 3.07830811 C15.45825109 3.04762873 11.33046562 2.99834842 7.2019043 2.92236328 C5.7229051 2.90693156 4.2439013 2.89193216 2.76489258 2.87744141 C1.49186279 2.85536621 0.21883301 2.83329102 -1.09277344 2.81054688 C-4.7045016 3.16315632 -6.58211722 3.9018516 -9.41870117 6.13525391 C-10.02160957 8.6388718 -10.02160957 8.6388718 -9.73120117 11.32275391 C-9.68608398 12.22380859 -9.6409668 13.12486328 -9.59448242 14.05322266 C-9.53647461 14.74029297 -9.4784668 15.42736328 -9.41870117 16.13525391 C-8.75870117 16.46525391 -8.09870117 16.79525391 -7.41870117 17.13525391 C-8.40870117 17.13525391 -9.39870117 17.13525391 -10.41870117 17.13525391 C-12.35793169 15.19602339 -11.63736589 11.76985796 -11.66870117 9.19775391 C-11.69448242 7.93060547 -11.72026367 6.66345703 -11.74682617 5.35791016 C-11.63854492 4.29443359 -11.53026367 3.23095703 -11.41870117 2.13525391 C-7.5624219 -0.43559894 -4.46165487 -0.09087972 0 0 Z"/>
<path transform="translate(242.6142578125,383.886474609375)" fill="#FE0251" d="M0 0 C0.76136261 -0.00014603 1.52272522 -0.00029205 2.30715942 -0.0004425 C4.8177579 0.00025284 7.32828171 0.00802752 9.83886719 0.01586914 C11.58192911 0.01773466 13.32499156 0.01915793 15.0680542 0.02015686 C19.65146334 0.02397145 24.2348407 0.03379272 28.8182373 0.04486084 C33.49698456 0.05509769 38.17573696 0.05965936 42.85449219 0.06469727 C52.03158947 0.07541593 61.20866318 0.09247967 70.38574219 0.11352539 C70.38574219 0.44352539 70.38574219 0.77352539 70.38574219 1.11352539 C43.65574219 1.77352539 16.92574219 2.43352539 -10.61425781 3.11352539 C-10.94425781 2.45352539 -11.27425781 1.79352539 -11.61425781 1.11352539 C-7.78550961 -0.1247115 -3.97728324 -0.01999986 0 0 Z"/>
<path transform="translate(272,467)" fill="#FE427D" d="M0 0 C29.7 0 59.4 0 90 0 C90 0.66 90 1.32 90 2 C86.73696891 3.08767703 86.14195955 2.85033007 83 2 C81.48463883 1.92610286 79.96629391 1.90369689 78.44921875 1.91992188 C77.53946289 1.92576294 76.62970703 1.931604 75.69238281 1.93762207 C74.70077148 1.94789429 73.70916016 1.9581665 72.6875 1.96875 C63.0385289 2.01874275 53.39766285 1.94802658 43.75 1.78125 C42.46109863 1.75901367 41.17219727 1.73677734 39.84423828 1.71386719 C35.89612906 1.64414557 31.94806578 1.57213511 28 1.5 C25.26693464 1.45139154 22.53385815 1.4034234 19.80078125 1.35546875 C13.20048011 1.23918279 6.60022437 1.12056089 0 1 C0 0.67 0 0.34 0 0 Z"/>
<path transform="translate(889,471)" fill="#080D17" d="M0 0 C6.27777063 0.78610532 9.82094764 4.4928725 14 9 C17.18368333 13.65841402 18.05700196 17.34201178 19 23 C13.39 23 7.78 23 2 23 C1.01 20.69 0.02 18.38 -1 16 C-2.49589041 14.41241506 -2.49589041 14.41241506 -4.1875 13.5625 C-5.115625 13.046875 -6.04375 12.53125 -7 12 C-6.01 11.67 -5.02 11.34 -4 11 C1.78703704 14.93518519 1.78703704 14.93518519 3 21 C9.435 20.505 9.435 20.505 16 20 C13.50152504 12.60451413 11.32508877 8.51792055 5 4 C3.5459375 2.824375 3.5459375 2.824375 2.0625 1.625 C1.381875 1.08875 0.70125 0.5525 0 0 Z"/>
<path transform="translate(858,531)" fill="#0A0F1A" d="M0 0 C0 1.65 0 3.3 0 5 C-0.33 4.01 -0.66 3.02 -1 2 C-1.99 2.33 -2.98 2.66 -4 3 C-5.89470816 3.0685495 -7.7916834 3.08480372 -9.6875 3.0625 C-10.68136719 3.05347656 -11.67523437 3.04445313 -12.69921875 3.03515625 C-13.83810547 3.01775391 -13.83810547 3.01775391 -15 3 C-13.25384683 10.05559452 -11.40502776 16.77705538 -5.296875 21.24609375 C-2.02336676 23.18884973 1.42710147 24.70076417 5 26 C2.39465432 26.99651471 1.28211942 27.10707503 -1.3671875 26.1015625 C-8.91340982 21.65845964 -12.97503068 16.78629111 -16.375 8.75 C-16.98787888 6.05333293 -17.04616149 3.75122471 -17 1 C-14.54171921 0.83252588 -12.08338135 0.6659856 -9.625 0.5 C-8.92632813 0.45230469 -8.22765625 0.40460937 -7.5078125 0.35546875 C-2.2265625 0 -2.2265625 0 0 0 Z"/>
<path transform="translate(639,532)" fill="#0A0D17" d="M0 0 C5.61 0 11.22 0 17 0 C17.33 1.98 17.66 3.96 18 6 C17.34 5.67 16.68 5.34 16 5 C16 3.68 16 2.36 16 1 C11.38 1.33 6.76 1.66 2 2 C4.33452082 10.63772703 6.11771262 16.44617507 14.0625 21.25 C15.70662762 22.16972252 17.35227554 23.08673703 19 24 C19.99 24.66 20.98 25.32 22 26 C15.50042587 25.72918441 11.72090944 23.41345525 7 19 C1.85213028 13.31914377 0 7.72193661 0 0 Z"/>
<path transform="translate(141.3125,512.1875)" fill="#FE6A2C" d="M0 0 C1.54010742 0.10538086 1.54010742 0.10538086 3.11132812 0.21289062 C5.63941487 0.38926877 8.16313976 0.58982773 10.6875 0.8125 C10.6875 1.1425 10.6875 1.4725 10.6875 1.8125 C10.12764404 1.82708252 9.56778809 1.84166504 8.9909668 1.85668945 C6.45161863 1.93121352 3.91357922 2.02785581 1.375 2.125 C0.49392578 2.14755859 -0.38714844 2.17011719 -1.29492188 2.19335938 C-2.56625977 2.2465332 -2.56625977 2.2465332 -3.86328125 2.30078125 C-4.64356689 2.32696533 -5.42385254 2.35314941 -6.2277832 2.38012695 C-8.76171166 2.9056671 -9.68177777 3.8533526 -11.3125 5.8125 C-11.9725 5.4825 -12.6325 5.1525 -13.3125 4.8125 C-12.6525 9.1025 -11.9925 13.3925 -11.3125 17.8125 C-12.6325 17.4825 -13.9525 17.1525 -15.3125 16.8125 C-16.51506511 14.40736979 -16.5828777 12.68396436 -16.6875 10 C-16.73648438 9.14792969 -16.78546875 8.29585937 -16.8359375 7.41796875 C-14.9955689 -1.74267196 -7.40948553 -0.65893697 0 0 Z"/>
<path transform="translate(885,523)" fill="#0B101B" d="M0 0 C4.41832494 1.35004373 6.64842388 2.99361106 9 7 C9.60669457 11.77771974 9.48805296 13.96532773 7.4375 18.3125 C3.79591726 22.3275784 0.61880447 23.75701814 -4.65234375 24.24609375 C-10.11522 24.37348593 -14.89792633 23.99646361 -20 22 C-20.33 21.34 -20.66 20.68 -21 20 C-20.31808594 20.15984375 -19.63617187 20.3196875 -18.93359375 20.484375 C-15.60482407 21.06945835 -12.4420261 21.20596709 -9.0625 21.25 C-7.28552734 21.28867187 -7.28552734 21.28867187 -5.47265625 21.328125 C-0.83248525 20.88968365 2.5181922 19.4324142 5.875 16.1875 C7.41542833 13.19222268 7.47570543 11.329938 7 8 C4.97522316 4.99774468 2.6208606 2.48981757 0 0 Z"/>
<path transform="translate(469,471)" fill="#000003" d="M0 0 C0.66 0.33 1.32 0.66 2 1 C2 4.96 2 8.92 2 13 C-17.305 12.505 -17.305 12.505 -37 12 C-37 11.67 -37 11.34 -37 11 C-24.79 11 -12.58 11 0 11 C0 7.37 0 3.74 0 0 Z"/>
<path transform="translate(699,480)" fill="#090E18" d="M0 0 C3.48961981 3.02433717 4.88132949 5.52531798 6 10 C6 11.32 6 12.64 6 14 C0.72 14 -4.56 14 -10 14 C-10.66 11.69 -11.32 9.38 -12 7 C-10.5 8.375 -10.5 8.375 -9 10 C-9 10.66 -9 11.32 -9 12 C-4.71 12 -0.42 12 4 12 C3.34 10.39125 2.68 8.7825 2 7.125 C0 2.25 0 2.25 0 0 Z"/>
<path transform="translate(481,498)" fill="#070B18" d="M0 0 C0.66 0.33 1.32 0.66 2 1 C1.38125 1.70125 0.7625 2.4025 0.125 3.125 C-2.0532068 6.07198567 -2.93274901 8.52903057 -4 12 C-1.87465341 11.85930804 0.25027529 11.71229079 2.375 11.5625 C4.15003906 11.44068359 4.15003906 11.44068359 5.9609375 11.31640625 C8.91518901 11.18915064 8.91518901 11.18915064 11 10 C10.67 11.32 10.34 12.64 10 14 C4.72 14 -0.56 14 -6 14 C-6 7.24053154 -4.66218416 4.66218416 0 0 Z"/>
<path transform="translate(328,467)" fill="#FE2A7B" d="M0 0 C11.22 0 22.44 0 34 0 C34 0.66 34 1.32 34 2 C30.70672923 3.09775692 30.17579286 2.83013882 27 2 C25.15583089 1.94220258 23.30959894 1.93832591 21.46484375 1.97265625 C19.88026367 1.99102539 19.88026367 1.99102539 18.26367188 2.00976562 C16.04225345 2.04498482 13.8208929 2.08406117 11.59960938 2.12695312 C10.01696289 2.14338867 10.01696289 2.14338867 8.40234375 2.16015625 C6.95589478 2.18541382 6.95589478 2.18541382 5.48022461 2.21118164 C3 2 3 2 0 0 Z"/>
<path transform="translate(243.484375,384.12109375)" fill="#FE195B" d="M0 0 C0.81559387 0.02361099 1.63118774 0.04722198 2.47149658 0.07154846 C5.0697264 0.14796058 7.66764114 0.23208109 10.265625 0.31640625 C12.02993264 0.36964944 13.79425553 0.42238968 15.55859375 0.47460938 C19.87780269 0.60354524 24.19674528 0.73939365 28.515625 0.87890625 C28.515625 1.20890625 28.515625 1.53890625 28.515625 1.87890625 C15.315625 2.20890625 2.115625 2.53890625 -11.484375 2.87890625 C-11.814375 2.21890625 -12.144375 1.55890625 -12.484375 0.87890625 C-8.29876792 -0.30740298 -4.31134308 -0.14778712 0 0 Z"/>
<path transform="translate(356,487)" fill="#FE0B43" d="M0 0 C0.33 0 0.66 0 1 0 C0.52715326 8.1362249 -0.51073401 16.21062221 -3 24 C-3.66 24.33 -4.32 24.66 -5 25 C-4.67 21.04 -4.34 17.08 -4 13 C-3.34 13 -2.68 13 -2 13 C-1.93941406 12.22914063 -1.87882812 11.45828125 -1.81640625 10.6640625 C-1.69072266 9.15972656 -1.69072266 9.15972656 -1.5625 7.625 C-1.48128906 6.62726563 -1.40007812 5.62953125 -1.31640625 4.6015625 C-1 2 -1 2 0 0 Z"/>
<path transform="translate(156,558)" fill="#FE783D" d="M0 0 C1.32 0.66 2.64 1.32 4 2 C3.175 2.45375 2.35 2.9075 1.5 3.375 C-1.41778542 6.43867469 -1.34127949 7.18633543 -1.3125 11.25 C-1.23234745 12.83473048 -1.1357675 14.41906283 -1 16 C-0.34 16.33 0.32 16.66 1 17 C0.01 17 -0.98 17 -2 17 C-3.93923052 15.06076948 -3.21866472 11.63460405 -3.25 9.0625 C-3.27578125 7.79535156 -3.3015625 6.52820313 -3.328125 5.22265625 C-3.21984375 4.15917969 -3.1115625 3.09570312 -3 2 C-2.01 1.34 -1.02 0.68 0 0 Z"/>
<path transform="translate(200,401)" fill="#FE3139" d="M0 0 C0.99 0.33 1.98 0.66 3 1 C2.06409496 2.1055189 1.12620142 3.20935453 0.1875 4.3125 C-0.33457031 4.92738281 -0.85664063 5.54226563 -1.39453125 6.17578125 C-2.87273876 7.85539902 -4.40081414 9.4363516 -6 11 C-6.556875 11.556875 -7.11375 12.11375 -7.6875 12.6875 C-8.120625 13.120625 -8.55375 13.55375 -9 14 C-8.38756115 10.62780583 -7.15616473 8.56758594 -5.0625 5.875 C-4.53785156 5.19179688 -4.01320312 4.50859375 -3.47265625 3.8046875 C-2 2 -2 2 0 0 Z"/>
<path transform="translate(469,471)" fill="#010512" d="M0 0 C0.66 0.33 1.32 0.66 2 1 C2 4.96 2 8.92 2 13 C-0.31 12.67 -2.62 12.34 -5 12 C-5 11.67 -5 11.34 -5 11 C-3.35 11 -1.7 11 0 11 C0 7.37 0 3.74 0 0 Z"/>
<path transform="translate(173,603)" fill="#FE8241" d="M0 0 C0.99 0.33 1.98 0.66 3 1 C2.01 1.7734375 2.01 1.7734375 1 2.5625 C-1.68675779 5.83698606 -1.37584533 7.86570136 -1 12 C-0.67 12.99 -0.34 13.98 0 15 C-0.99 15.66 -1.98 16.32 -3 17 C-4.38923038 14.22153923 -3.97431513 12.14683299 -3.75 9.0625 C-3.68296875 8.00160156 -3.6159375 6.94070313 -3.546875 5.84765625 C-2.96555956 2.8206637 -2.39620368 1.84868402 0 0 Z"/>
<path transform="translate(135.88671875,512.70703125)" fill="#FE7E49" d="M0 0 C1.40668945 0.01450195 1.40668945 0.01450195 2.84179688 0.02929688 C3.81826172 0.05443359 4.79472656 0.07957031 5.80078125 0.10546875 C6.78884766 0.11900391 7.77691406 0.13253906 8.79492188 0.14648438 C11.23492356 0.18184672 13.67382844 0.23119842 16.11328125 0.29296875 C16.11328125 0.62296875 16.11328125 0.95296875 16.11328125 1.29296875 C15.55342529 1.30755127 14.99356934 1.32213379 14.41674805 1.3371582 C11.87739988 1.41168227 9.33936047 1.50832456 6.80078125 1.60546875 C5.91970703 1.62802734 5.03863281 1.65058594 4.13085938 1.67382812 C2.85952148 1.72700195 2.85952148 1.72700195 1.5625 1.78125 C0.78221436 1.80743408 0.00192871 1.83361816 -0.80200195 1.8605957 C-3.33593041 2.38613585 -4.25599652 3.33382135 -5.88671875 5.29296875 C-6.54671875 4.63296875 -7.20671875 3.97296875 -7.88671875 3.29296875 C-5.42854811 0.24399315 -3.85656876 -0.07011943 0 0 Z"/>
<path transform="translate(779,547)" fill="#111A27" d="M0 0 C3.52869781 1.41147912 4.41455951 2.63093896 6 6 C7.29470975 7.37086915 8.62150897 8.71340837 10 10 C6.10913233 9.42357516 3.79382697 7.71831813 1 5 C0.1875 2.25 0.1875 2.25 0 0 Z"/>
<path transform="translate(723,525)" fill="#0A111E" d="M0 0 C0.66 0.33 1.32 0.66 2 1 C0.33333333 2.66666667 -1.33333333 4.33333333 -3 6 C-3.721875 6.763125 -4.44375 7.52625 -5.1875 8.3125 C-7 10 -7 10 -9 10 C-7.64717831 5.57258356 -5.76701112 3.63690779 -2 1 C-1.34 0.67 -0.68 0.34 0 0 Z"/>
<path transform="translate(844,501)" fill="#0F121A" d="M0 0 C4 4.75 4 4.75 4 7 C4.5775 7.2475 5.155 7.495 5.75 7.75 C8.3002997 9.16683317 10.01785701 10.87627537 12 13 C8.0981079 12.42194191 5.86538742 10.644973 3 8 C0.88153908 5.00493457 0 3.69349436 0 0 Z"/>
<path transform="translate(187,447)" fill="#FE5C55" d="M0 0 C0.33 0 0.66 0 1 0 C1.12375 1.010625 1.2475 2.02125 1.375 3.0625 C1.90683527 6.99905755 1.90683527 6.99905755 3.125 10.6875 C3.94438485 13.78945692 4.16343388 15.0914153 3 18 C2.87625 17.360625 2.7525 16.72125 2.625 16.0625 C2.41875 15.381875 2.2125 14.70125 2 14 C1.34 13.67 0.68 13.34 0 13 C0 8.71 0 4.42 0 0 Z"/>
<path transform="translate(291,568)" fill="#FE2028" d="M0 0 C0.33 0 0.66 0 1 0 C1.19392201 5.52677733 0.7479503 9.75614911 -1 15 C-1.33 15 -1.66 15 -2 15 C-2 10.71 -2 6.42 -2 2 C-1.34 2 -0.68 2 0 2 C0 1.34 0 0.68 0 0 Z"/>
<path transform="translate(791,495)" fill="#0C111B" d="M0 0 C0.66 0.33 1.32 0.66 2 1 C-3.75 6 -3.75 6 -6 6 C-6.33 7.32 -6.66 8.64 -7 10 C-7.66 10 -8.32 10 -9 10 C-7.64717831 5.57258356 -5.76701112 3.63690779 -2 1 C-1.34 0.67 -0.68 0.34 0 0 Z"/>
<path transform="translate(171,619)" fill="#FD6D27" d="M0 0 C4.29 0.99 8.58 1.98 13 3 C13 3.33 13 3.66 13 4 C5.78777589 5.34465195 5.78777589 5.34465195 2 3.6875 C1.34 3.130625 0.68 2.57375 0 2 C0 1.34 0 0.68 0 0 Z"/>
<path transform="translate(228,492)" fill="#FD5A5D" d="M0 0 C3.22088353 4.8313253 3.22088353 4.8313253 4 7 C3.3203125 9.359375 3.3203125 9.359375 2.125 11.75 C1.73570312 12.54921875 1.34640625 13.3484375 0.9453125 14.171875 C0.63335937 14.77515625 0.32140625 15.3784375 0 16 C-0.33 15.34 -0.66 14.68 -1 14 C-0.67 13.34 -0.34 12.68 0 12 C0.07065617 9.95944995 0.08421976 7.91665743 0.0625 5.875 C0.05347656 4.77929688 0.04445312 3.68359375 0.03515625 2.5546875 C0.02355469 1.71164062 0.01195312 0.86859375 0 0 Z"/>
<path transform="translate(146,479)" fill="#FE7246" d="M0 0 C0.66 0 1.32 0 2 0 C2.33 0.66 2.66 1.32 3 2 C3.99 2.33 4.98 2.66 6 3 C6.6875 5.0625 6.6875 5.0625 7 7 C4.625 6.3125 4.625 6.3125 2 5 C0.6875 2.375 0.6875 2.375 0 0 Z"/>
<path transform="translate(239,385)" fill="#FD294F" d="M0 0 C0.33 0.66 0.66 1.32 1 2 C-1.64 2 -4.28 2 -7 2 C-7.33 1.34 -7.66 0.68 -8 0 C-4.97878489 -0.97110486 -2.99536737 -1.13617383 0 0 Z"/>
<path transform="translate(392,412)" fill="#FE1D74" d="M0 0 C0.66 0.66 1.32 1.32 2 2 C1.96712417 4.72869407 1.43602229 7.2966618 1 10 C-1.56687367 6.1496895 -0.83288724 4.41430237 0 0 Z"/>
</svg>